<svg width="352" height="84" viewBox="0 0 352 84" fill="none" xmlns="http://www.w3.org/2000/svg">
<g clip-path="url(#clip0_1013_2596)">
<path d="M26.38 61.2101C24.92 61.2701 24.02 61.3301 23.06 61.3301C22.1 61.3301 21.45 61.2701 20.61 61.2101C20.23 61.2101 19.73 61.06 19.73 61.54C19.73 62.64 23.32 61.7001 23.32 65.1901V71.1901C23.32 76.3101 22.56 81.1101 16.76 81.1101C11.53 81.1101 10.36 77.2601 10.36 72.6101V66.0301C10.36 61.0301 12.81 62.6701 12.81 61.6401C12.81 61.4501 12.76 61.2101 12.5 61.2101C11.94 61.2101 9.87002 61.3301 8.38002 61.3301C6.89002 61.3301 4.73002 61.2101 4.38002 61.2101C4.15002 61.2101 3.77002 61.3101 3.77002 61.7001C3.77002 62.8501 6.77002 61.8801 6.77002 64.4901V74.3801C6.77002 80.2501 9.68002 82.8901 15.14 82.8901C23.19 82.8901 24.86 77.7701 24.86 71.6101V64.76C24.86 61.33 26.86 62.4301 26.86 61.6101C26.86 61.2701 26.68 61.2101 26.33 61.2101" fill="#23201F"/>
<path d="M64.28 76.16C64.1 76.16 63.76 75.79 63.38 75.37L51.68 62C51.16 61.43 51.51 61.21 50.57 61.21C49.03 61.21 48.27 61.33 47.51 61.33C46.96 61.33 46.43 61.21 45.88 61.21C45.8114 61.2052 45.7425 61.2155 45.6783 61.2403C45.6141 61.265 45.5561 61.3035 45.5084 61.3531C45.4607 61.4027 45.4245 61.4622 45.4023 61.5273C45.3801 61.5924 45.3725 61.6616 45.38 61.73C45.38 63.18 48.65 61.21 48.65 67.04V78.55C48.65 81.65 45.85 81.11 45.85 82.31C45.85 82.83 46.43 82.68 46.75 82.68C47.54 82.68 48.33 82.56 49.26 82.56C50.19 82.56 51.26 82.68 52.7 82.68C53.09 82.68 53.82 82.68 53.82 82.28C53.82 80.86 50.08 82.92 50.08 77.1V66.79C50.08 66.52 50.14 66.31 50.31 66.31C50.48 66.31 50.63 66.46 50.84 66.7L64.84 82.47C64.9188 82.6004 65.0305 82.7079 65.1638 82.7816C65.2972 82.8553 65.4476 82.8927 65.6 82.89C65.95 82.89 65.95 82.64 65.95 81.98V64.98C65.95 61.8 68.44 62.53 68.44 61.62C68.44 61.52 68.44 61.22 67.88 61.22C67.61 61.22 66.6 61.34 64.75 61.34C62.75 61.34 61.9 61.22 61.43 61.22C61.3633 61.218 61.2971 61.2305 61.2357 61.2566C61.1744 61.2827 61.1195 61.3219 61.0748 61.3713C61.0301 61.4208 60.9966 61.4794 60.9768 61.543C60.957 61.6067 60.9513 61.6739 60.96 61.74C60.96 62.74 64.53 62.19 64.53 64.95V75.05C64.53 75.8 64.46 76.17 64.29 76.17" fill="#23201F"/>
<path d="M97.5399 82.23C97.5399 81.23 94.2699 82.64 94.2699 78.92V64.4601C94.2699 61.5801 96.4499 62.67 96.4499 61.64C96.4499 61.27 96.3099 61.2101 95.4499 61.2101C93.7799 61.2101 92.7299 61.33 91.6799 61.33C90.6299 61.33 89.5199 61.2101 88.3799 61.2101C88.1199 61.2101 87.3799 61.12 87.3799 61.64C87.3799 62.7 90.6799 61.85 90.6799 64.64V79.1901C90.6799 82.0701 88.5799 81.28 88.5799 82.34C88.5799 82.5 88.6399 82.7101 88.8999 82.7101C89.6599 82.7101 90.8999 82.59 92.1699 82.59C94.4399 82.59 95.5199 82.7101 96.5999 82.7101C97.2699 82.7101 97.5399 82.59 97.5399 82.26" fill="#23201F"/>
<path d="M136.52 61.21C135.7 61.21 134.89 61.33 134.07 61.33C133.25 61.33 132.41 61.21 131.56 61.21C131.21 61.21 130.36 61.12 130.36 61.7C130.36 62.76 133.31 61.64 133.31 64.49C133.257 65.7357 132.94 66.9559 132.38 68.07L128.38 77.29C128.3 77.49 128.18 77.91 128 77.91C127.82 77.91 127.68 77.49 127.59 77.29L123.8 67.52C123.201 66.1978 122.826 64.7852 122.69 63.34C122.69 62.07 124.44 62.52 124.44 61.7C124.44 61.18 124.3 61.21 123.36 61.21C122.9 61.21 122.05 61.33 120.18 61.33C119.18 61.33 118.18 61.21 117.18 61.21C116.74 61.21 115.84 60.97 115.84 61.7C115.84 61.91 116.22 62.1 116.31 62.12C116.802 62.1836 117.264 62.3913 117.637 62.717C118.011 63.0426 118.28 63.4717 118.41 63.95L125.68 81.59C126.21 82.86 126.5 83.16 126.79 83.16C127.08 83.16 127.26 82.98 127.58 82.16L135.52 63.94C136.31 62.15 137.52 62.3 137.52 61.61C137.52 61.09 137.12 61.18 136.52 61.18" fill="#23201F"/>
<path d="M172.19 77.1601C171.08 77.1601 171.49 81.1601 164.25 81.1601C162.15 81.1601 162.25 80.0701 162.25 78.1601V74.2801C162.25 72.5301 162.13 72.1601 163.47 72.1601H165.68C168.68 72.1601 167.9 75.3701 168.83 75.3701C169.53 75.3701 169.36 74.2801 169.33 73.8901L169.13 68.4901C169.13 67.6701 168.77 67.7301 168.57 67.7301C167.99 67.7301 167.9 70.5201 165.39 70.5201H163.55C162.3 70.5201 162.3 70.3101 162.3 69.0001V64.7601C162.3 62.6701 162.41 62.6401 165.94 62.6401C171.57 62.6401 169.3 66.1901 170.67 66.1901C171.34 66.1901 171.2 65.1901 171.16 64.7901L171.05 61.7901C171.051 61.7127 171.037 61.6358 171.008 61.5641C170.978 61.4925 170.935 61.4275 170.88 61.3732C170.824 61.319 170.759 61.2765 170.687 61.2484C170.614 61.2204 170.537 61.2073 170.46 61.2101C167.9 61.2101 165.88 61.3401 163.81 61.3401C159.35 61.3401 157.25 61.2101 156.05 61.2101C155.64 61.2101 155.41 61.4501 155.41 61.7301C155.41 62.9401 158.71 61.9701 158.71 64.7301V78.9201C158.71 82.6201 156.49 80.9901 156.49 82.3801C156.49 82.5601 156.67 82.7101 157.04 82.7101C158.64 82.7101 159.87 82.5901 160.78 82.5901C162.24 82.5901 163.99 82.7101 168.42 82.7101C170.81 82.7101 172.54 80.2201 172.54 77.8601C172.54 77.2901 172.33 77.1901 172.22 77.1901" fill="#23201F"/>
<path d="M208.04 82.68C209.21 82.68 211.14 82.01 211.14 81.07C211.14 81.0131 211.128 80.9568 211.106 80.9045C211.084 80.8522 211.051 80.8049 211.01 80.7657C210.969 80.7264 210.92 80.6959 210.867 80.676C210.813 80.6561 210.757 80.6472 210.7 80.6499C210.41 80.6499 210.12 80.83 209.83 80.83C209.626 80.8547 209.42 80.8231 209.233 80.7384C209.046 80.6538 208.886 80.5194 208.77 80.35C206.67 76.52 204.19 72.13 204.19 71.95C204.19 71.77 205.04 71.37 205.89 70.68C206.442 70.2167 206.881 69.6337 207.174 68.9752C207.467 68.3167 207.606 67.6002 207.58 66.88C207.58 65.49 207 61.21 200.58 61.21C198.63 61.21 196.65 61.33 194.69 61.33C192.73 61.33 192.62 61.21 191.27 61.21C190.92 61.21 190.64 61.36 190.64 61.67C190.64 62.76 193.82 61.67 193.82 65.03V78.3699C193.82 82.1899 191.45 81.19 191.45 82.16C191.45 82.77 192.06 82.68 192.38 82.68C193.84 82.68 195.3 82.56 196.88 82.56C198.1 82.56 198.88 82.68 199.39 82.68C200.06 82.68 200.29 82.4999 200.29 82.2299C200.29 81.1299 197.4 82.38 197.4 79.13V73.89C197.4 72.82 197.23 72.61 198.78 72.61C199.342 72.5131 199.919 72.6227 200.406 72.9187C200.894 73.2146 201.257 73.6768 201.43 74.22L203.88 79.0099C204.78 80.7699 205.72 82.68 208.02 82.68M199.36 71.22C198.49 71.22 197.36 71.22 197.36 70.46V64.33C197.36 62.52 198.27 62.52 199.36 62.52C202.3 62.52 203.94 64.7599 203.94 67.7299C203.94 69.5199 203.76 71.22 199.33 71.22" fill="#23201F"/>
<path d="M243.61 76.22C243.61 72.37 241.69 71.07 238.56 69.64C234.65 67.85 233.04 67.46 233.04 65.43C233.013 65.0001 233.078 64.5694 233.232 64.1671C233.386 63.7649 233.625 63.4005 233.933 63.0988C234.24 62.7971 234.609 62.5651 235.014 62.4187C235.419 62.2722 235.851 62.2146 236.28 62.25C241.28 62.25 241.74 67.88 242.42 67.88C243.1 67.88 243.14 67.52 243.08 66.88L242.76 62.82C242.71 62.13 242.76 61.67 242.35 61.67C241.94 61.67 241.24 62.15 240.86 62.15C239.99 62.15 238.77 60.97 236.37 60.97C232.96 60.97 230.63 63.52 230.63 66.97C230.63 70.15 232.35 71.33 234.86 72.48C239.55 74.64 241.39 75.03 241.39 77.61C241.408 78.1346 241.316 78.6572 241.119 79.144C240.923 79.6308 240.627 80.0712 240.25 80.4367C239.873 80.8022 239.424 81.0847 238.932 81.2661C238.439 81.4475 237.914 81.5238 237.39 81.49C234.15 81.49 232.39 78.73 231.39 75.82C231.27 75.42 231.22 75.15 230.75 75.15C230.02 75.15 230.31 76.03 230.4 76.45L231.3 80.6C231.45 81.33 231.42 81.6 232.15 81.76C233.84 82.15 235.33 82.88 237.15 82.88C238.027 82.9123 238.902 82.7606 239.717 82.4347C240.532 82.1088 241.27 81.6159 241.883 80.9876C242.496 80.3594 242.971 79.6097 243.277 78.7869C243.583 77.964 243.714 77.0862 243.66 76.21" fill="#23201F"/>
<path d="M271.99 61.64C271.99 61.27 271.84 61.2101 270.99 61.2101C269.33 61.2101 268.27 61.33 267.23 61.33C266.19 61.33 265.07 61.2101 263.93 61.2101C263.67 61.2101 262.93 61.12 262.93 61.64C262.93 62.7 266.22 61.85 266.22 64.64V79.1901C266.22 82.0701 264.12 81.28 264.12 82.34C264.12 82.5 264.18 82.7101 264.44 82.7101C265.2 82.7101 266.44 82.59 267.71 82.59C269.99 82.59 271.07 82.7101 272.15 82.7101C272.82 82.7101 273.08 82.59 273.08 82.26C273.08 81.26 269.81 82.67 269.81 78.95V64.4601C269.81 61.5801 272.01 62.67 272.01 61.64" fill="#23201F"/>
<path d="M310.85 61.94C310.85 61.64 310.85 61.21 310.38 61.21C307.67 61.21 305.72 61.33 301.46 61.33C297.2 61.33 295.24 61.21 292.53 61.21C292.09 61.21 292.09 61.64 292.06 61.94L291.59 65.94C291.53 66.33 291.36 66.94 291.97 66.94C293.28 66.94 292.41 62.94 295.71 62.94H298.16C299.35 62.94 299.65 63.09 299.65 64.55V78.71C299.65 82.31 296.35 80.8599 296.35 82.0399C296.35 82.7099 296.84 82.68 297.35 82.68C298.51 82.68 299.48 82.56 301.44 82.56C303.4 82.56 304.35 82.68 305.52 82.68C306.37 82.68 306.95 82.7699 306.95 82.0399C306.95 81.3099 303.22 82.04 303.22 78.34V64.64C303.22 63.18 303.51 63.03 304.7 63.03H307.18C310.54 62.91 309.61 66.27 310.78 66.27C311.53 66.27 311.21 65.0999 311.15 64.7299L310.85 61.94Z" fill="#23201F"/>
<path d="M348.4 61.54C348.4 61.33 348.25 61.21 347.87 61.21C347.06 61.21 346.73 61.33 344.51 61.33C343 61.33 342.39 61.21 342.01 61.21C341.63 61.21 341.45 61.36 341.45 61.67C341.45 62.61 344.28 61.94 344.28 63.95C344.27 64.5418 344.089 65.1181 343.76 65.61L341.11 70.61C340.76 71.27 340.55 71.52 340.37 71.52C340.19 71.52 339.94 71.13 339.47 70.12L336.85 64.49C336.606 64.0615 336.466 63.5822 336.44 63.09C336.44 62.09 338.04 62.3 338.04 61.61C338.04 61.43 337.95 61.18 337.54 61.21C335.77 61.33 334.54 61.33 333.28 61.33C331.83 61.33 331.12 61.21 330.6 61.21C329.93 61.21 329.6 61.21 329.6 61.58C329.6 62.58 331.38 61.79 332.51 63.97L337.13 72.97C337.488 73.5359 337.653 74.2025 337.6 74.87V78.82C337.6 82.66 334.41 81 334.41 82.37C334.41 82.64 334.73 82.7 335.2 82.7C336.02 82.7 336.87 82.58 339.49 82.58C343.13 82.58 343.61 82.7 343.84 82.7C344.33 82.7 344.77 82.7 344.77 82.33C344.77 80.79 341.18 82.88 341.18 79.06V74.55C341.113 73.8864 341.245 73.2179 341.56 72.63L345.38 65.12C347.11 61.78 348.38 62.38 348.38 61.56" fill="#23201F"/>
<path d="M27.46 19.53V19.41C29.3327 18.8451 30.9704 17.6855 32.1252 16.1067C33.28 14.5279 33.889 12.6158 33.86 10.66C33.86 9.17997 33.8 -3.11897e-05 19.42 -3.11897e-05C14.5 -3.11897e-05 9.51 0.249969 4.52 0.249969C3.34154 0.272591 2.16344 0.188919 1 -3.11897e-05C0.71 -3.11897e-05 0 -0.0600309 0 0.929969C0 3.92997 6.22 0.559971 6.22 9.11997V36.52C6.22 42.52 1.22 40.86 1.22 42.91C1.22 43.78 1.81 43.91 3.16 43.91C4.51 43.91 5.93 43.66 7.32 43.66C10.26 43.66 13.19 43.91 21.94 43.91C31.5 43.91 36.94 38.58 36.94 30.39C36.94 24.81 34.71 21.46 27.55 19.54M13.55 8.53997C13.55 4.99997 13.67 2.63997 17.65 2.63997C18.921 2.62205 20.1826 2.86102 21.359 3.34254C22.5354 3.82407 23.6025 4.53823 24.4962 5.44219C25.3899 6.34616 26.0918 7.42131 26.5599 8.60316C27.0279 9.78502 27.2524 11.0492 27.22 12.32C27.22 16.91 25.52 19.26 21.06 19.26H17.43C14.03 19.01 13.43 18.77 13.43 15.73L13.55 8.53997ZM20.68 41.42C14.99 41.42 13.47 39.69 13.47 33.8V26.85C13.47 23.63 13.59 22.07 17.05 22.07C27.73 22.07 29.43 27.65 29.43 31.37C29.43 37.37 26.43 41.42 20.68 41.42" fill="#23201F"/>
<path d="M44.58 14.28V38.11C44.58 42.82 41.2 41.53 41.2 43.26C41.2 43.51 41.29 43.86 41.72 43.86C42.93 43.86 44.95 43.66 46.97 43.66C50.63 43.66 52.37 43.86 54.1 43.86C55.18 43.86 55.61 43.66 55.61 43.12C55.61 41.53 50.35 43.81 50.35 37.71V14.04C50.35 9.32999 53.87 11.11 53.87 9.41999C53.87 8.82999 53.64 8.72999 52.23 8.72999C49.55 8.72999 47.86 8.92999 46.17 8.92999C44.48 8.92999 42.7 8.72999 40.87 8.72999C40.45 8.72999 39.27 8.57999 39.27 9.41999C39.27 11.16 44.58 9.76999 44.58 14.28" fill="#23201F"/>
<path d="M63.56 34.73V17.8601C63.56 17.4101 63.65 17.0701 63.93 17.0701C64.21 17.0701 64.45 17.3101 64.78 17.7101L87.35 43.5001C87.4722 43.7159 87.6496 43.8953 87.8639 44.0201C88.0783 44.1448 88.3219 44.2104 88.57 44.2101C89.14 44.2101 89.14 43.8001 89.14 42.7101V14.88C89.14 9.67005 93.14 10.88 93.14 9.38005C93.14 9.22005 93.14 8.73006 92.25 8.73006C91.83 8.73006 90.19 8.93005 87.25 8.93005C84.02 8.93005 82.66 8.73006 81.91 8.73006C81.8021 8.72614 81.6947 8.74586 81.5953 8.78785C81.4958 8.82983 81.4068 8.89306 81.3344 8.97309C81.262 9.05313 81.2079 9.14803 81.1761 9.25115C81.1442 9.35427 81.1353 9.46312 81.15 9.57005C81.15 11.2101 86.88 10.3201 86.88 14.8301V31.3501C86.88 32.5901 86.79 33.1901 86.5 33.1901C86.21 33.1901 85.66 32.59 85.05 31.9L66.14 10.0201C65.3 9.08006 65.86 8.73006 64.36 8.73006C61.87 8.73006 60.65 8.93005 59.43 8.93005C58.54 8.93005 57.69 8.73006 56.8 8.73006C56.6897 8.72361 56.5795 8.74125 56.4767 8.78176C56.374 8.82227 56.2814 8.88467 56.2053 8.96462C56.1291 9.04457 56.0713 9.14014 56.0359 9.2447C56.0004 9.34925 55.9882 9.46028 56 9.57005C56 11.9601 61.26 8.73005 61.26 18.2501V37.1101C61.26 42.1801 56.75 41.28 56.75 43.26C56.75 44.11 57.69 43.8601 58.21 43.8601C59.48 43.8601 60.74 43.6601 62.21 43.6601C63.68 43.6601 65.45 43.8601 67.76 43.8601C68.36 43.8601 69.54 43.8601 69.54 43.2201C69.54 40.8901 63.54 44.2201 63.54 34.7401" fill="#23201F"/>
<path d="M111.16 44.21C116.27 44.21 121.48 41.92 125.94 39.33C126.37 39.09 126.41 38.84 126.41 38.05C126.41 37.26 126.27 35.97 126.27 33.93C126.27 27.58 129.51 30.27 129.51 28.13C129.51 27.63 129.23 27.43 128.99 27.43C127.3 27.43 125.66 27.63 123.92 27.63C121.72 27.63 119.56 27.43 117.35 27.43C116.55 27.43 115.05 27.03 115.05 28.48C115.05 30.36 120.64 26.99 120.64 34.73C120.64 37.61 120.49 41.73 112.05 41.73C104.44 41.73 101.16 32.73 101.16 25.9C101.16 13.36 107.35 10.33 111.72 10.33C124.06 10.33 124.06 21.14 125.09 21.14C126.12 21.14 126.27 20.89 126.27 20.25V11.96C126.27 11.17 126.27 10.08 125.57 10.08C124.87 10.08 124.68 11.51 123.68 11.51C122.41 11.51 118.47 8.29004 111.95 8.29004C100.12 8.29004 95.28 19.24 95.28 27.58C95.28 31.5 97.4 44.21 111.15 44.21" fill="#23201F"/>
<path d="M147.09 43.16C147.09 41.37 141.27 43.16 141.27 37V29.22C141.27 27.03 141.42 26.54 143.57 26.54H156.11C158.17 26.54 158.03 27.08 158.03 29.17V38.11C158.03 42.92 154.6 41.58 154.6 43.31C154.6 43.66 154.89 43.86 155.54 43.86C157.94 43.86 159.76 43.66 161.45 43.66C163.38 43.66 166.15 43.86 167.7 43.86C168.31 43.86 168.7 43.86 168.7 43.26C168.7 41.34 163.82 43.17 163.82 36.86V13.94C163.82 9.07996 167.2 11.21 167.2 9.32996C167.2 8.87996 167.01 8.72997 166.2 8.72997C164.2 8.72997 162.44 8.92996 160 8.92996C157.09 8.92996 155.87 8.72997 153.94 8.72997C153.29 8.72997 152.87 8.62997 152.87 9.51997C152.87 10.96 158.03 9.17996 158.03 14.63V21.63C158.03 22.72 157.75 23.86 156.38 23.86H142.44C141.44 23.86 141.27 23.22 141.27 21.86V13.97C141.27 9.54996 144.89 10.97 144.89 9.44996C144.89 8.95996 144.46 8.70996 143.81 8.70996C142.44 8.70996 140.57 8.90997 137.75 8.90997C135.31 8.90997 133.9 8.70996 132.49 8.70996C131.6 8.70996 130.2 8.70996 130.2 9.49996C130.2 11.39 135.5 9.19996 135.5 14.61V36.74C135.5 42.89 131.5 41.1 131.5 43.09C131.5 43.74 131.97 43.83 132.5 43.83C134.85 43.83 136.82 43.63 138.79 43.63C142.17 43.63 143.72 43.83 145.64 43.83C147.15 43.83 147.05 43.43 147.05 43.14" fill="#23201F"/>
<path d="M176.24 39.0399C176.393 37.6937 176.729 36.3748 177.24 35.1199C178.32 31.8499 179.3 31.6499 180.1 31.6499H189.35C190.57 31.6499 190.81 32.1499 192.35 36.0099C192.846 37.051 193.135 38.1786 193.2 39.3299C193.2 42.3299 189.87 41.8199 189.87 43.2499C189.87 43.9499 190.48 43.8499 191.32 43.8499C192.68 43.8499 194.42 43.6499 196.48 43.6499C199.58 43.6499 200.85 43.8499 202.54 43.8499C203.81 43.8499 204.23 43.9499 204.23 43.1099C204.23 41.4699 201.69 43.4099 200.23 39.8799L187.56 9.51994C186.95 8.03994 186.85 7.93994 186.43 7.93994C185.82 7.93994 185.58 8.87994 185.26 9.66994L172.54 39.6699C171.37 42.4399 168.97 42.1499 168.97 43.2799C168.97 43.9299 169.73 43.8299 170.38 43.8299C171.74 43.8299 173.1 43.6299 174.51 43.6299C175.92 43.6299 177.42 43.8299 178.92 43.8299C179.92 43.8299 181.36 44.1899 181.36 43.1399C181.36 41.7999 176.29 42.5899 176.29 39.0199M180.56 26.6699L184.18 17.8899C184.42 17.3399 184.6 17.2899 184.7 17.2899C184.8 17.2899 184.79 17.2899 185.07 17.6899L188.93 26.6899C189.214 27.2624 189.387 27.8833 189.44 28.5199C189.44 29.0199 188.78 28.9699 187.93 28.9699H181.55C180.71 28.9699 180.05 28.9699 180.05 28.5199C180.099 27.8825 180.272 27.2607 180.56 26.6899" fill="#23201F"/>
<path d="M241 36.86L240.2 14.86C240.01 9.15996 244.61 11.09 244.61 9.30996C244.61 8.90996 244.52 8.70996 243.25 8.70996C241.98 8.70996 241.05 8.90997 240.25 8.90997C239.45 8.90997 238.65 8.70996 237.53 8.70996C236.63 8.70996 236.53 9.35996 236.35 9.70996L225.47 33.71C225.42 33.85 225 34.71 224.72 34.71C224.44 34.71 224.29 34.36 224.11 33.92L213.68 10.17C213.03 8.67996 212.56 8.72997 212.05 8.72997C210.5 8.72997 208.76 8.92996 207.68 8.92996C206.18 8.92996 205.47 8.72997 204.87 8.72997C204.54 8.72997 204.3 9.11996 204.3 9.41996C204.3 11.61 209.3 9.27996 209.04 17.42L208.39 37.36C208.2 42.57 204.39 41.36 204.39 43.12C204.39 43.41 204.58 43.81 205.28 43.81C205.98 43.81 207.63 43.61 209.93 43.61C212.23 43.61 213.07 43.81 214.76 43.81C216.07 43.81 215.89 43.21 215.89 43.02C215.89 41.02 210.72 43.86 211.01 35.38L211.47 21.49C211.47 21.14 211.47 20.25 211.8 20.25C212.13 20.25 212.18 20.79 212.32 21.09L221.43 42.48C221.66 43.02 221.89 43.86 222.6 43.86C223.31 43.86 223.54 43.12 223.82 42.48L232.69 22.88C233.4 21.24 233.96 20.25 234.15 20.25C234.34 20.25 234.47 21 234.53 22.48L235.22 37.48C235.5 42.99 231.84 41.35 231.84 43.04C231.84 43.93 233.02 43.78 234.01 43.78C235 43.78 236.21 43.58 239.26 43.58C240.62 43.58 241.94 43.78 243.26 43.78C244.9 43.78 245.51 43.78 245.51 42.94C245.51 41.1 241.19 43.28 240.96 36.79" fill="#23201F"/>
<path d="M277.26 9.91998C277.21 9.41998 277.21 8.72998 276.51 8.72998C272.14 8.72998 269 8.92998 262.15 8.92998C255.3 8.92998 252.15 8.72998 247.78 8.72998C247.07 8.72998 247.07 9.41998 247.04 9.91998L246.28 16.47C246.18 17.11 245.9 18.21 246.89 18.21C249 18.21 247.59 11.7 252.89 11.7H256.83C258.76 11.7 259.23 11.96 259.23 14.33V37.33C259.23 43.23 253.92 40.86 253.92 42.79C253.92 43.88 254.72 43.79 255.56 43.79C257.44 43.79 258.99 43.59 262.14 43.59C265.29 43.59 266.83 43.79 268.71 43.79C270.06 43.79 271 43.94 271 42.79C271 41.4 265 42.84 265 36.79V14.33C265 11.96 265.47 11.7 267.39 11.7H271.39C276.79 11.51 275.29 17.01 277.17 17.01C278.39 17.01 277.87 15.08 277.77 14.49L277.26 9.91998Z" fill="#23201F"/>
<path d="M296.93 8.28997C285.71 8.37997 279.48 16.56 279.48 27.43C279.48 37.5 285.81 44.21 295.24 44.21C310.24 44.21 313.08 32.05 313.08 25.1C313.08 14.58 306.08 8.17997 296.93 8.28997ZM296.61 42.11C288.2 42.25 285.25 31.89 285.25 24.64C285.25 17.39 287.59 10.64 295.53 10.45C301.53 10.36 307.3 16.11 307.3 27.07C307.3 35.31 304.67 41.96 296.61 42.07" fill="#23201F"/>
<path d="M327.94 43.21C327.94 40.88 321.94 44.21 321.94 34.73V17.86C321.94 17.41 322.04 17.07 322.31 17.07C322.58 17.07 322.84 17.31 323.16 17.71L345.74 43.5C345.862 43.7165 346.039 43.8966 346.253 44.0214C346.468 44.1463 346.712 44.2114 346.96 44.21C347.52 44.21 347.52 43.8 347.52 42.71V14.88C347.52 9.67002 351.52 10.88 351.52 9.38002C351.52 9.22002 351.52 8.73002 350.63 8.73002C350.21 8.73002 348.57 8.93002 345.63 8.93002C342.39 8.93002 341.03 8.73002 340.28 8.73002C340.173 8.72759 340.067 8.74841 339.969 8.79104C339.87 8.83368 339.783 8.89712 339.711 8.97698C339.64 9.05684 339.587 9.15122 339.556 9.25361C339.524 9.35599 339.516 9.46395 339.53 9.57002C339.53 11.21 345.26 10.32 345.26 14.83V31.35C345.26 32.59 345.16 33.19 344.87 33.19C344.58 33.19 344.04 32.59 343.42 31.9L324.56 10.02C323.71 9.08003 324.27 8.73002 322.77 8.73002C320.28 8.73002 319.06 8.93002 317.84 8.93002C316.95 8.93002 316.1 8.73002 315.21 8.73002C315.1 8.72334 314.99 8.7409 314.888 8.78148C314.786 8.82205 314.694 8.88464 314.618 8.96481C314.543 9.04498 314.486 9.14076 314.452 9.24535C314.418 9.34994 314.407 9.46079 314.42 9.57002C314.42 11.96 319.67 8.73002 319.67 18.25V37.11C319.67 42.18 315.17 41.28 315.17 43.26C315.17 44.11 316.1 43.86 316.62 43.86C317.89 43.86 319.16 43.66 320.62 43.66C322.08 43.66 323.86 43.86 326.16 43.86C326.76 43.86 327.94 43.86 327.94 43.22" fill="#23201F"/>
</g>
<defs>
<clipPath id="clip0_1013_2596">
<rect width="351.5" height="83.16" fill="white"/>
</clipPath>
</defs>
</svg>