<svg width="180" height="137" viewBox="0 0 180 137" fill="none" xmlns="http://www.w3.org/2000/svg">
<path d="M74.815 14.5076C69.0813 14.5076 64.2688 18.1038 64.2688 24.2338C64.2688 30.0251 68.8138 33.9051 74.39 33.9051C77.0363 33.9051 79.2825 33.2488 81.1325 32.1901V23.5188H73.7025V26.2938H78.0913V30.495C77.06 30.9163 75.9538 31.1088 74.55 31.1088C70.4775 31.1088 67.65 28.2501 67.65 24.2063C67.65 20.3201 70.1288 17.4113 74.8163 17.4113C76.4038 17.4113 78.1988 17.6513 79.81 18.2626V15.2263C78.275 14.7201 76.6888 14.5076 74.815 14.5076ZM112.764 14.5076C107.393 14.5076 103.246 18.6551 103.246 24.2063C103.246 29.7563 107.208 33.9051 112.598 33.9051C117.969 33.9051 122.115 29.7563 122.115 24.2063C122.115 18.6563 118.154 14.5076 112.764 14.5076ZM155.261 14.5076C149.521 14.5076 144.715 18.1038 144.715 24.2338C144.715 30.0251 149.258 33.9051 154.834 33.9051C157.478 33.9051 159.72 33.2488 161.576 32.1901V23.5188H154.149V26.2938H158.535V30.495C157.508 30.9163 156.394 31.1088 154.99 31.1088C150.923 31.1088 148.091 28.2501 148.091 24.2063C148.091 20.3201 150.574 17.4113 155.261 17.4113C156.839 17.4113 158.636 17.6513 160.25 18.2626V15.2263C158.723 14.7201 157.134 14.5076 155.261 14.5076ZM0.633789 14.9588V17.8413H6.71379V33.4601H9.88504V17.8413H15.965V14.9588H0.633789ZM20.1413 14.9588V33.4613H23.2875V25.5001H32.2213V33.4613H35.3925V14.9601H32.2213V22.6751H23.2875V14.9601C23.2875 14.9588 20.1413 14.9588 20.1413 14.9588ZM41.68 14.9588V33.4613H54.0238V30.5751H44.8563V25.4538H53.495V22.6751H44.8563V17.8426H54.0238V14.9601L41.68 14.9588ZM86.5775 14.9588V33.4613H98.9175V30.5751H89.7438V25.4538H98.3875V22.6751H89.7438V17.8426H98.9175V14.9601L86.5775 14.9588ZM127.429 14.9588V33.4613H130.6V27.0963H133.934L137.941 33.4613H141.649L136.973 26.3963C139.401 25.4225 140.666 23.415 140.666 20.9788C140.666 17.5213 138.141 14.9588 133.268 14.9588H127.429ZM167.018 14.9588V33.4613H179.358V30.5751H170.194V25.4538H178.834V22.6751H170.194V17.8426H179.358V14.9601L167.018 14.9588ZM112.658 17.3088C116.254 17.3088 118.734 20.2976 118.734 24.2076C118.734 28.1188 116.254 31.1101 112.706 31.1101C109.113 31.1101 106.636 28.1188 106.636 24.2076C106.636 20.2976 109.113 17.3088 112.658 17.3088ZM130.6 17.8101H133.461C136.073 17.8101 137.34 19.0575 137.34 21.0663C137.34 23.0713 136.073 24.2926 133.461 24.2926H130.6V17.8101ZM47.045 44.6001C43.2975 44.6001 41.025 46.9263 41.025 50.0963C41.025 53.2426 43.3513 54.4338 45.5188 55.3601C47.8938 56.3888 49.1375 56.8638 49.1375 58.5538C49.1375 59.9025 48.375 61.1963 46.3363 61.1963C44.75 61.1963 43.135 60.7763 41.6238 60.0063H41.6V63.0725C42.9775 63.65 44.5375 63.9925 46.3363 63.9925C50.3263 63.9925 52.3638 61.1713 52.3638 58.2113C52.3638 54.775 49.8463 53.6138 47.6313 52.6625C45.5425 51.7613 44.2425 51.2563 44.2425 49.7526C44.2425 48.4051 45.12 47.4013 47.0438 47.4013C48.345 47.4013 49.9038 47.8701 50.985 48.4051H51.0125V45.3426C49.7975 44.8876 48.4238 44.6001 47.045 44.6001ZM115.971 44.6001C110.344 44.6001 105.644 48.1963 105.644 54.3251C105.644 60.1138 110.11 63.9925 115.579 63.9925C118.176 63.9925 120.361 63.3388 122.183 62.2838V53.6138H114.919V56.3888H119.145V60.59C118.148 61.01 117.059 61.1951 115.711 61.1951C111.771 61.1951 109.024 58.345 109.024 54.295C109.024 50.415 111.458 47.5075 116.006 47.5075C117.534 47.5075 119.275 47.7426 120.843 48.3263H120.868V45.3126C119.361 44.8138 117.793 44.6001 115.971 44.6001ZM150.518 44.6001C145.233 44.6001 141.16 48.7538 141.16 54.295C141.16 59.8488 145.05 63.9925 150.363 63.9925C155.646 63.9925 159.713 59.8488 159.713 54.295C159.714 48.7538 155.833 44.6001 150.518 44.6001ZM30.12 44.9176L21.925 63.55H25.1988L26.7275 59.8788H34.1863L35.745 63.55H39.1263L30.9325 44.9176C30.9325 44.9176 30.12 44.9176 30.12 44.9176ZM85.93 44.9176V63.55H88.95V51.6326L99.7838 63.6813H100.861V45.0501H97.8538V57.0213L87.0138 44.9176H85.93ZM164.481 44.9176V63.55H167.495V51.6326L178.333 63.6813H179.41V45.0501H176.399V57.0213L165.563 44.9176H164.481ZM0.133789 45.0501L5.86379 63.68H6.68629L11.2038 53.5088L15.9088 63.68H16.7313L22.4163 45.0488H19.37L15.9088 56.7788L11.6063 47.455H11.0713L6.81754 56.8088L3.38379 45.0488H0.133789V45.0501ZM56.5963 45.0501V63.55H59.7425V55.5951H68.0975V63.55H71.265V45.0501H68.0988V52.7663H59.7438V45.0501C59.7425 45.0501 56.5963 45.0501 56.5963 45.0501ZM77.0188 45.0501V63.55H80.185V45.0501C80.1838 45.0501 77.0188 45.0501 77.0188 45.0501ZM124.521 45.0501V47.9313H130.414V63.55H133.581V47.9313H139.48V45.0501H124.521ZM150.408 47.4013C153.896 47.4013 156.328 50.3925 156.328 54.2963C156.328 58.2125 153.896 61.1963 150.456 61.1963C146.97 61.1963 144.543 58.2125 144.543 54.2963C144.543 50.3925 146.97 47.4013 150.408 47.4013ZM30.45 51.0476L33.0775 57.2313H27.8438L30.45 51.0476ZM123.47 74.6926C119.433 74.6926 116.943 77.0163 116.943 80.2163C116.943 83.3625 119.45 84.5276 121.801 85.4488C124.606 86.5613 125.821 87.0063 125.821 88.6438C125.821 89.9963 125.004 91.2888 122.676 91.2888C120.878 91.2888 119.028 90.8688 117.309 90.0988H117.258V93.1675C118.763 93.7513 120.539 94.0888 122.488 94.0888C126.88 94.0888 129.044 91.2588 129.044 88.2701C129.044 84.8651 126.451 83.705 124.051 82.7775C121.273 81.7225 120.165 81.2975 120.165 79.8425C120.165 78.4988 121.139 77.4913 123.283 77.4913C124.743 77.4913 126.428 77.97 127.644 78.4988H127.696V75.4325C126.374 74.98 124.949 74.6926 123.47 74.6926ZM23.8025 75.0113V93.6413H26.8163V81.5088L38.3688 93.7726H39.4525V75.1475H36.4375V87.3275L24.8825 75.0113H23.8025ZM0.655039 75.1475V86.2925C0.655039 91.1838 3.82504 93.9563 8.42629 93.9563C12.9738 93.9563 16.2713 91.105 16.2713 86.2925V75.1475H13.1025V86.1338C13.1025 89.3588 11.355 91.1313 8.48129 91.1313C5.54504 91.1313 3.82504 89.3888 3.82504 86.1338V75.1475H0.655039ZM47.2388 75.1475V93.6413H50.415V75.1475C50.415 75.1475 47.2388 75.1475 47.2388 75.1475ZM55.295 75.1475L63.9663 93.7726H64.7813L73.455 75.1475H70.1L64.415 87.6925L58.7663 75.1475H55.295ZM78.3375 75.1475V93.6413H90.9988V90.76H81.5125V85.6375H90.4688V82.8625H81.5125V78.0213H90.9988V75.1488L78.3375 75.1475ZM98.075 75.1475V93.6413H101.246V87.27H104.81L108.963 93.6413H112.658L107.849 86.5851C110.359 85.6376 111.658 83.5963 111.658 81.165C111.658 77.7063 109.073 75.1475 104.126 75.1475H98.075ZM135.653 75.1475V93.6413H138.816V75.1475C138.818 75.1475 135.653 75.1475 135.653 75.1475ZM144.424 75.1475V78.02H150.581V93.6413H153.748V78.02H159.908V75.1475H144.424ZM162.725 75.1475L169.653 86.0613V93.6413H172.801V86.0813L179.729 75.1475H176.153L171.295 83.3075L166.379 75.1475H162.725ZM101.246 77.9975H104.309C107.004 77.9975 108.333 79.2413 108.333 81.2438C108.333 83.255 107.004 84.4688 104.309 84.4688H101.246V77.9975ZM35.6888 120.679C33.0813 120.679 31.4838 122.155 31.4838 124.355C31.4838 126.584 33.2188 127.355 34.8963 128.08C36.9738 128.973 38.0325 129.401 38.0325 131.035C38.0325 132.495 37.0213 133.393 35.3 133.393C34.035 133.393 32.83 133.101 31.6988 132.535H31.6788V134.054C32.6913 134.504 33.9963 134.773 35.3 134.773C37.9125 134.773 39.5888 133.156 39.5888 130.886C39.5888 128.331 37.5238 127.529 35.7175 126.751C34.15 126.09 33.04 125.565 33.04 124.203C33.04 122.834 34.035 122.063 35.6888 122.063C36.6425 122.063 37.62 122.278 38.56 122.605H38.5675V121.16C37.6188 120.836 36.6888 120.679 35.6888 120.679ZM88.485 120.679C84.8788 120.679 81.165 123.268 81.165 127.73C81.165 131.991 84.6663 134.773 88.4463 134.773C90.47 134.773 92.0663 134.218 93.4288 133.179V127.686H88.3488V129.089H91.95V132.495C90.8575 133.143 89.81 133.409 88.4663 133.409C85.29 133.409 82.7713 130.939 82.7713 127.729C82.7713 124.533 84.8788 122.061 88.505 122.061C89.8475 122.061 91.46 122.39 92.7488 123.054H92.7625V121.575C91.485 120.95 89.94 120.679 88.485 120.679ZM114.909 120.679C111.224 120.679 108.034 123.639 108.034 127.73C108.034 131.813 111.089 134.761 114.773 134.761C118.448 134.761 121.628 131.813 121.628 127.73C121.628 123.639 118.588 120.679 114.909 120.679ZM175.716 120.679C171.53 120.679 168.394 123.719 168.394 127.73C168.394 131.813 171.451 134.773 175.716 134.773C177.174 134.773 178.345 134.521 179.414 134.078V132.655H179.394C178.268 133.155 177.003 133.391 175.716 133.391C172.23 133.391 170.008 130.939 170.008 127.729C170.008 124.509 172.099 122.061 175.696 122.061C177.001 122.061 178.268 122.299 179.394 122.798H179.414V121.374C178.345 120.926 177.174 120.679 175.716 120.679ZM23.1288 120.819L17.1275 134.538H18.67L20.2675 130.764H26.4238L28.0138 134.538H29.6313L23.62 120.819H23.1288ZM66.1075 120.868V134.538H67.51V124.143L76.0375 134.581H76.6375V120.908H75.2375V131.306L66.7063 120.868H66.1075ZM126.148 120.868V134.538H127.54V124.143L136.069 134.581H136.673V120.908H135.273V131.306L126.741 120.868H126.148ZM0.210039 120.909L4.37879 134.641H4.85879L8.38629 125.919L11.9275 134.641H12.4213L16.57 120.91H15.125L12.0475 131.213L8.66254 122.9H8.17254L4.78879 131.288L1.68754 120.909H0.210039ZM43.8475 120.909V134.538H45.345V128.291H52.6275V134.538H54.1275V120.909H52.6275V126.95H45.345V120.909H43.8475ZM59.3675 120.909V134.538H60.8613V120.909H59.3675ZM95.8425 120.909V122.259H100.401V134.538H101.88V122.259H106.433V120.909H95.8425ZM153.236 120.909V134.538H156.826C161.885 134.538 164.59 131.368 164.59 127.729C164.59 124.059 161.904 120.909 156.826 120.909H153.236ZM114.846 122.024C117.866 122.024 120.004 124.509 120.004 127.729C120.004 130.939 117.865 133.431 114.846 133.431C111.809 133.431 109.648 130.939 109.648 127.729C109.646 124.509 111.809 122.024 114.846 122.024ZM154.718 122.241H156.825C160.951 122.241 162.979 124.551 162.979 127.73C162.979 130.916 160.97 133.22 156.825 133.22H154.718V122.241ZM23.35 123.52L25.9025 129.514H20.8025C20.8038 129.514 23.35 123.52 23.35 123.52ZM141.259 132.655L140.788 136.988H141.686L142.954 133.179V132.655H141.259Z" fill="#23201F"/>
<path d="M0 4.95911e-05V2.8963H179.998V4.95911e-05C179.998 4.95911e-05 0 4.95911e-05 0 4.95911e-05ZM0 105.869V108.769H179.998V105.869H0Z" fill="#23201F"/>
</svg>