<svg width="2280" height="380" viewBox="0 0 2280 380" fill="none" xmlns="http://www.w3.org/2000/svg">
<path fill-rule="evenodd" clip-rule="evenodd" d="M1997.05 345.248L2034.21 248.351L2040.67 254.81C2063.27 272.566 2092.34 288.726 2121.43 288.726C2147.27 290.321 2160.19 282.267 2156.97 261.269C2153.73 245.109 2135.95 241.892 2124.65 240.271L2098.82 235.433C2050.36 225.732 2009.97 195.058 2009.97 138.523C2009.97 52.9226 2084.28 4.46753 2158.57 4.46753C2197.32 4.46753 2234.49 14.156 2266.79 35.1541L2236.11 120.754C2218.33 109.445 2192.5 91.6892 2158.57 90.068C2147.27 90.068 2123.03 94.9187 2131.11 120.754C2134.35 132.064 2150.49 136.915 2158.57 138.523L2187.65 144.982C2240.94 157.9 2279.7 186.978 2279.7 249.972C2279.7 335.573 2203.78 379.164 2129.49 379.164C2085.9 379.164 2035.81 366.246 1997.05 345.248ZM1845.24 372.705V9.30527H1971.22V372.705H1845.24ZM1701.49 9.30527H1832.33L1699.89 372.705H1593.29L1460.83 9.30527H1590.05L1636.88 175.656C1641.72 193.424 1644.96 211.18 1644.96 228.961H1648.18C1648.18 211.18 1651.42 193.424 1656.26 175.656L1701.49 9.30527ZM1270.27 9.30527H1409.16L1533.54 372.705H1401.08L1388.16 327.492H1294.48L1284.81 372.705H1152.37L1270.27 9.30527ZM1317.1 241.892H1367.15C1358.67 199.338 1349.82 156.836 1341.32 114.296L1317.1 241.892ZM827.727 372.705H986.01C1087.77 372.705 1160.44 304.873 1160.44 196.654C1160.44 62.611 1071.62 9.31823 955.336 9.31823H827.74V372.705H827.727ZM952.094 117.525H960.174C1007.01 117.525 1034.48 144.982 1034.48 196.654C1034.48 243.487 1003.79 269.349 961.795 269.349H952.094V117.525ZM750.206 20.6149L758.287 80.3667C759.908 94.9058 767.975 128.822 756.665 123.971C751.815 122.35 745.356 106.202 740.505 93.2845C738.884 85.2043 725.966 52.9096 722.736 49.6672C706.589 38.3705 667.822 25.4527 641.974 25.4527C561.211 25.4527 507.918 83.5831 507.918 188.586C507.918 264.485 543.455 354.937 635.515 354.937C669.431 354.937 732.425 343.614 748.572 296.806C756.652 275.808 763.111 258.026 767.962 262.89C772.813 267.728 767.962 283.862 764.733 293.564C755.031 337.155 753.423 350.099 750.193 351.694C709.819 372.692 656.513 379.151 609.679 379.151C461.084 379.151 411.021 293.551 411.021 206.342C411.021 57.7474 503.08 -5.23385 645.216 1.22509C680.753 1.23806 716.277 7.69704 750.206 20.6149ZM314.124 27.0739L289.896 18.9937C281.829 12.5348 291.518 10.9135 291.518 10.9135C291.518 10.9135 327.042 17.3725 411.034 9.29231C411.034 9.29231 419.114 10.9135 414.264 17.3725L386.807 28.6821C367.417 36.7623 367.417 31.9245 367.417 52.9096V237.015C367.417 382.394 220.443 379.151 191.378 379.151C178.46 379.151 44.3918 379.151 44.3918 262.877V67.4487C44.3918 31.9246 47.6342 33.5328 36.3116 30.3034L2.39569 17.3854C2.39569 17.3854 -4.06326 7.69702 5.63813 9.30527C34.7034 10.9265 75.0782 15.7642 168.759 9.30527C168.759 9.30527 176.839 10.9265 172.001 17.3854L144.531 25.4656C121.925 35.154 125.155 27.0738 125.155 49.6801V243.487C125.155 290.321 149.382 350.112 225.294 350.112C330.271 350.112 331.893 259.648 331.893 238.65V48.0719C331.893 30.3033 330.271 35.1411 314.124 27.0739Z" fill="#23201F"/>
</svg>