<svg width="484" height="91" viewBox="0 0 484 91" fill="none" xmlns="http://www.w3.org/2000/svg">
<path d="M94.9521 0.0065918C72.6457 0.0065918 66.4023 14.1728 66.4023 33.4502C66.4023 55.6547 76.4099 71.4951 97.2461 71.4951C104.96 71.4951 110.795 70.5534 115.901 68.6753V64.1947C113.197 65.2384 109.443 66.8052 102.467 66.8052C79.6402 66.8052 76.7158 46.0683 76.7158 32.6238C76.7158 21.8865 78.0787 4.06329 94.8475 4.06329C107.782 4.06329 111.938 13.4404 113.304 19.2813H115.901L114.97 2.91496C110.374 1.67005 103.294 0.0065918 94.9521 0.0065918ZM157.589 0.0065918C144.472 0.0065918 134.148 5.10966 134.148 17.6124C134.148 24.2904 136.34 28.0305 140.92 31.5721C150.611 38.9745 167.916 42.4168 167.916 53.6639C167.916 60.8624 161.973 66.7972 152.803 66.7972C141.65 66.7972 136.753 60.3392 135.924 54.8122H133.311L134.043 69.5124C136.654 69.9309 144.88 71.4924 151.966 71.4924C166.231 71.4924 177.707 65.2357 177.707 52.0031C177.707 42.1002 172.188 37.8342 163.956 33.0397C154.89 27.7273 142.481 24.7009 142.481 15.4285C142.481 8.54658 148.631 4.06597 155.617 4.06597C166.763 4.06597 170.937 10.5347 171.879 16.0509H174.482L173.76 1.77201C169.062 0.838322 164.584 0.0065918 157.589 0.0065918ZM0.529297 1.0476V3.12424C6.27092 3.12424 9.60052 3.85401 9.60052 11.675V46.3822C9.60052 61.0744 12.9435 71.4924 34.5095 71.4924C56.1881 71.4924 58.2728 60.6558 58.2728 46.3822V11.675C58.2728 3.85401 61.6051 3.12424 67.3387 3.12424V1.0476H43.2695V3.12424C48.8931 3.12424 52.3246 3.85401 52.3246 11.675V46.3822C52.3246 58.7804 49.9394 67.4197 34.9173 67.4197C21.3789 67.4197 18.8757 57.0096 18.8757 46.3822V11.675C18.8757 3.85401 22.3179 3.12424 27.9415 3.12424V1.0476H0.53198H0.529297ZM279.856 1.0476V3.1296C285.491 3.1296 288.925 3.85401 288.925 11.675V59.816C288.925 67.6289 285.491 68.3587 279.856 68.3587V70.4541H304.245C320.611 70.4541 339.902 66.8026 339.902 35.8542C339.902 4.79843 321.55 1.0476 304.245 1.0476H279.856ZM304.245 5.10966C324.045 5.10966 329.572 16.6734 329.572 35.8542C329.572 56.7977 322.167 66.384 304.245 66.384C299.04 66.384 298.208 65.2384 298.208 57.6321V13.867C298.208 5.7348 299.04 5.10966 304.245 5.10966ZM354.068 7.78193C351.117 7.78193 348.783 10.0947 348.783 13.0648C348.783 16.0322 351.117 18.3449 354.068 18.3449C357.046 18.3449 359.354 16.0322 359.354 13.0648C359.354 10.0947 357.046 7.78193 354.068 7.78193ZM441.668 19.2732C436.007 19.2732 433.807 25.6775 432.331 29.1923C429.353 27.62 427.019 26.8822 422.753 26.8822C413.953 26.8822 405.26 29.474 405.26 41.4294C405.26 49.3094 408.479 52.0917 410.626 53.849C409.606 54.9679 406.628 58.4879 406.628 61.9195C406.628 65.8179 409.043 67.5753 410.626 68.4955C407.648 69.9846 403.409 72.4825 403.409 78.2321C403.409 86.5709 412.853 90.0052 421.921 90.0052C434.263 90.0052 444.646 84.0784 444.646 73.5101C444.646 63.2234 434.344 63.0356 429.917 63.0356H418.97C415.992 63.0356 411.377 63.0356 411.377 59.3197C411.377 57.2833 412.477 55.8908 413.041 55.153C415.053 56.0759 417.763 56.5481 421.465 56.5481C432.6 56.5481 438.422 51.2573 438.422 41.8963C438.422 35.4034 435.363 31.9692 434.263 30.7645C434.719 29.2862 435.551 26.5951 437.59 26.5951C438.797 26.5951 439.361 27.8991 441.775 27.8991C444.539 27.8991 446.122 26.2302 446.122 23.7163C446.122 20.9394 444.271 19.2732 441.668 19.2732ZM198.803 26.8822C192.401 26.8822 183.419 29.9381 183.419 35.9642C183.419 38.4647 185.356 40.1389 187.862 40.1389C189.445 40.1389 192.222 39.114 192.222 35.3149C192.222 32.3448 192.965 29.9381 198.714 29.9381C206.495 29.9381 206.594 36.7905 206.594 43.2834V46.8008C199.552 47.4581 182.117 47.4554 182.117 60.8973C182.117 66.9206 186.84 71.3717 193.233 71.3717C199.549 71.3717 203.539 68.7853 206.396 64.6132H206.594C206.594 68.6002 208.172 71.3717 213.554 71.3717C216.881 71.3717 219.199 70.8163 220.31 70.54V68.6002C219.481 68.7853 218.638 68.9677 217.809 68.9677C214.925 68.9677 213.822 67.8543 213.822 64.6132V41.6119C213.822 32.9941 211.504 26.8822 198.803 26.8822ZM236.628 26.8822L222.352 29.1037V30.6813C225.032 30.8665 229.395 31.1428 229.395 36.7073V62.0188C229.395 68.0448 226.237 68.8712 222.352 68.8712V70.4541H243.671V68.8712C239.767 68.8712 236.628 68.0448 236.628 62.0188V50.6053C236.628 41.7943 243.303 31.3253 248.763 31.3253C254.894 31.3253 254.98 34.9419 254.98 42.9185V62.0188C254.98 68.0448 251.822 68.8712 247.934 68.8712V70.4541H269.259V68.8712C265.366 68.8712 262.216 68.0448 262.216 62.0188V40.8794C262.216 32.2536 261.29 26.8822 251.457 26.8822C242.273 26.8822 238.109 35.6824 236.816 39.114H236.628V26.8822ZM357.959 26.8822L343.685 29.1037V30.6813C346.475 30.8665 350.741 31.1428 350.741 36.7073V62.0188C350.741 68.0448 347.575 68.8712 343.685 68.8712V70.4541H365.015V68.8712C361.124 68.8712 357.959 68.0448 357.959 62.0188V26.8822ZM383.93 26.8822C370.569 26.8822 365.095 34.3785 365.095 47.9169C365.095 63.4891 373.171 71.3717 387.525 71.3717C393.186 71.3717 396.352 70.54 398.579 69.7002V66.7409C396.701 67.6665 394.206 67.9455 392.086 67.9455C376.579 67.9455 372.796 52.0944 372.796 44.3056H399.787V42.2612C399.787 31.5104 392.247 26.8822 383.93 26.8822ZM464.098 26.8822C452.239 26.8822 444.727 35.2156 444.727 49.127C444.727 63.0329 452.239 71.3717 464.098 71.3717C475.984 71.3717 483.469 63.0329 483.469 49.127C483.469 35.2156 475.984 26.8822 464.098 26.8822ZM382.723 29.9381C389.859 29.9381 391.523 36.3317 391.523 41.247H372.796C372.796 37.8154 375.666 29.9381 382.723 29.9381ZM421.653 29.9381C428.334 29.9381 430.748 35.5 430.748 42.4463C430.748 47.3696 429.729 53.4815 421.921 53.4815C415.241 53.4815 412.933 47.7398 412.933 40.6943C412.933 35.3176 414.328 29.9381 421.653 29.9381ZM464.098 29.9381C473.381 29.9381 475.232 41.4294 475.232 49.127C475.232 56.8245 473.381 68.3104 464.098 68.3104C454.842 68.3104 452.99 56.8245 452.99 49.127C452.99 41.4294 454.842 29.9381 464.098 29.9381ZM206.594 49.8648V55.3381C206.594 61.6378 202.701 67.484 196.675 67.484C193.523 67.484 190.365 64.2403 190.365 59.4243C190.365 50.7985 202.235 49.9641 206.594 49.8648ZM413.872 69.617H430.078C434.746 69.617 438.61 71.192 438.61 75.9194C438.61 82.5947 430.829 86.9519 422.404 86.9519C414.328 86.9519 409.418 82.2245 409.418 76.7538C409.418 72.5817 412.021 71.0041 413.872 69.617Z" fill="#23201F"/>
<path d="M0.53125 86.4314V88.7844H400.888C400.03 88.0653 399.279 87.2739 398.635 86.4314H0.53125ZM446.097 86.4314C445.265 87.2819 444.353 88.06 443.334 88.7844H482.72V86.4314H446.097Z" fill="#23201F"/>
</svg>