<svg width="128" height="45" viewBox="0 0 128 45" fill="none" xmlns="http://www.w3.org/2000/svg">
<g clip-path="url(#clip0_1013_2674)">
<path d="M23.598 2.45499C23.927 2.82399 24.561 4.06199 24.712 4.50999L30.494 21.124C30.6 21.372 30.626 21.855 30.968 21.855C31.233 21.853 31.285 21.296 31.377 21.085L34.414 12.748L37.377 20.67C37.503 20.986 37.674 21.853 37.984 21.855C38.241 21.855 38.333 21.445 38.465 21.049L44.19 4.66799C44.671 3.35099 45.229 1.95499 46.14 1.79799C46.495 1.74599 46.673 1.61399 46.673 1.61399C46.673 1.37699 46.622 1.32399 46.292 1.32399C45.659 1.32399 45.279 1.42999 44.646 1.42999C43.962 1.42999 43.43 1.35099 42.848 1.35099C42.519 1.35099 42.544 1.45599 42.544 1.64099C42.544 1.85099 43.177 1.71899 43.532 2.50799C43.734 2.92899 43.658 3.82499 43.456 4.34999L38.593 17.695L36.516 11.775L35.705 9.61499C35.705 9.61499 35.579 9.66799 36.161 7.87799L37.301 4.45699C37.858 2.77299 38.414 1.88899 39.124 1.87699C40.019 1.86199 40.018 1.32399 39.334 1.32399L37.63 1.37699C36.997 1.37699 36.668 1.32399 35.984 1.32399C35.731 1.32399 35.452 1.40299 35.477 1.61399C35.502 1.82499 35.882 1.74599 36.161 1.90199C36.617 2.14099 36.921 3.11399 36.592 4.14099L35.249 8.43099L33.729 4.43099C33.426 3.66699 33.024 1.98899 33.76 1.83599C34.47 1.69099 34.374 1.32399 33.943 1.32399C33.107 1.32399 32.666 1.42999 31.855 1.42999C30.968 1.42999 30.31 1.32399 29.475 1.32399C29.297 1.32399 28.968 1.35099 29.069 1.69299C29.12 1.90199 29.55 1.82499 29.804 1.98299C30.816 2.64099 31.019 3.48299 31.374 4.43099L33.603 10.721C34.008 11.852 34.033 11.431 33.704 12.406L31.754 17.749L26.966 4.03599C26.587 3.00799 26.384 2.29699 27.22 1.90199C27.575 1.71899 27.679 1.68399 27.727 1.61399C27.775 1.54399 27.817 1.30499 27.296 1.32399L25.042 1.42999C24.13 1.42999 23.497 1.32399 22.661 1.32399C22.382 1.32399 22.332 1.45599 22.332 1.66499C22.332 1.98299 23.015 1.77199 23.598 2.45499ZM116.363 11.771V19.192C116.363 21.138 115.054 20.668 114.757 21.177C114.606 21.436 115.005 21.497 115.332 21.497C115.634 21.497 116.137 21.377 117.47 21.377C118.929 21.377 119.432 21.497 119.859 21.497C120.237 21.497 120.67 21.331 120.413 21.078C120.007 20.681 118.199 21.138 118.199 19.072V12.19C118.174 11.71 119.054 9.85599 121.167 9.85599C123.203 9.85599 124.109 12.1 124.109 13.596V19.192C124.084 21.388 123.326 20.694 123.027 21.138C122.861 21.386 123.153 21.497 123.48 21.497C123.807 21.497 124.335 21.377 125.291 21.377C126.523 21.377 127.062 21.491 127.389 21.491C127.641 21.491 128.098 21.298 127.817 21.07C127.181 20.56 125.929 21.339 125.945 19.072V14.136C125.945 11.861 125.215 8.53899 121.846 8.53899C119.407 8.53899 118.149 10.853 118.199 10.495V8.77799C118.199 8.47799 118.048 8.29799 117.897 8.29799C117.319 8.29799 116.89 9.28099 114.922 9.86999C114.796 9.89999 114.435 9.90299 114.422 10.131C114.422 10.759 116.398 9.31399 116.363 11.771ZM42.643 13.181C42.886 13.456 43.865 12.398 43.923 12.341C43.981 12.284 43.995 12.216 43.995 12.216C43.989 10.957 44.937 9.35199 46.296 9.21799C47.847 9.06299 48.623 10.224 48.623 11.794V13.827C42.738 15.002 41.886 16.96 41.886 18.558C41.886 20.699 43.392 21.657 45.027 21.657C46.435 21.657 47.818 20.994 48.874 19.909C49.201 20.904 49.856 21.505 50.836 21.476C51.176 21.466 51.227 21.56 52.26 21.114C52.618 21.021 52.598 21.026 53.008 21.102C53.55 21.291 54.29 21.656 55.591 21.656C57.563 21.685 59.33 19.86 59.33 17.601C59.33 16.209 58.925 15.325 57.015 14.141L55.417 13.282C53.839 12.419 53.217 11.853 53.172 11.045C53.099 9.64599 54.287 8.91999 55.316 9.02099C57.78 8.97899 58.11 11.739 58.362 11.739C58.739 11.739 58.639 11.377 58.639 10.564C58.639 10.353 58.664 9.32799 58.512 9.08699C58.21 8.63399 56.467 8.36899 56.041 8.36899C55.934 8.36899 55.53 8.35599 55.461 8.35499C55.341 8.35099 55.186 8.36899 55.186 8.36899C53.431 8.34199 51.791 9.45299 51.842 11.802C51.891 13.943 54.407 15.164 55.766 15.977C56.771 16.55 57.954 17.096 57.939 18.468C57.92 20.032 56.708 21.07 55.403 20.983C52.346 20.932 52.765 17.098 52.213 17.098C51.837 17.098 51.914 18.062 51.912 18.574L51.901 19.909C51.839 20.261 51.699 20.584 51.372 20.603C50.169 20.675 50.459 18.761 50.459 17.737V11.491C50.4 9.57899 48.961 8.33199 46.774 8.33199C43.772 8.33199 41.625 12.031 42.643 13.181ZM48.828 18.339C48.828 19.939 47.205 20.783 46.3 20.783C44.967 20.783 44.033 19.916 44.033 18.198C44.033 15.542 47.218 15.059 48.828 14.637C48.828 14.637 48.828 18.339 48.828 18.339ZM73.818 7.39299C74.137 7.39299 74.849 6.22499 74.849 5.87399C74.849 5.52299 74.137 4.32599 73.818 4.32599C73.524 4.32599 72.787 5.55299 72.787 5.87399C72.787 6.19499 73.524 7.39299 73.818 7.39299ZM82.105 21.076C81.7 20.679 79.892 21.136 79.892 19.07V12.187C79.867 11.708 80.747 9.85299 82.859 9.85299C84.896 9.85299 85.802 12.097 85.802 13.594V19.19C85.802 21.136 85.018 20.692 84.72 21.136C84.553 21.384 84.846 21.494 85.173 21.494C85.5 21.494 86.028 21.375 86.984 21.375C87.889 21.375 88.467 21.439 88.84 21.473C88.563 21.878 88.369 22.344 88.342 22.835C88.208 25.268 91.191 26.14 93.695 26.107C98.666 26.041 100.074 22.589 99.045 20.762C97.983 18.874 95.71 18.951 93.529 18.958C89.447 18.973 90.22 16.444 91.882 16.538C92.265 16.56 92.082 16.668 93.406 16.668C95.768 16.668 98.032 15.063 97.965 12.419C97.96 12.195 98.015 11.423 97.447 10.34L99.789 10.338L99.782 17.744C99.782 21.09 101.375 21.658 102.568 21.658C104.264 21.658 105.495 20.542 105.715 20.02C106.712 21.087 108.102 21.658 109.715 21.658C112.808 21.658 115.146 18.806 115.146 15.074C115.146 9.43099 111.601 8.30899 109.689 8.30899C106.521 8.30899 104.082 11.495 104.082 15.227C104.082 17.122 104.593 18.635 105.461 19.719C105.16 19.924 104.569 20.394 103.373 20.394C102.335 20.394 101.734 19.777 101.682 18.446V10.334L104.965 10.325C105.179 10.325 105.596 8.92199 105.611 8.85099C105.647 8.67399 105.706 8.53299 105.726 8.40599C105.768 8.13799 105.56 8.11599 105.372 8.39899C105.219 8.54399 105.06 8.93099 104.412 8.93099H101.688C101.688 6.59199 101.714 5.52999 101.35 5.52999C101.002 5.52999 101.055 5.62599 100.739 6.66699C100.316 8.06599 99.004 8.82899 98.185 9.27299C97.817 9.35599 97.399 9.38699 96.934 9.28399C96.221 9.12799 95.379 8.26299 93.224 8.26299C90.914 8.26299 88.894 10.151 88.894 12.683C88.894 14.048 89.497 15.361 90.561 16.057C90.364 16.174 89.076 17.26 89.232 18.536C89.232 18.536 89.206 19.858 90.244 20.304C89.922 20.433 89.598 20.648 89.31 20.92C88.631 20.67 87.638 20.859 87.638 19.07V14.132C87.638 11.857 86.908 8.53699 83.538 8.53699C81.099 8.53699 79.841 10.851 79.892 10.491V8.77499C79.892 8.47599 79.741 8.29599 79.59 8.29599C79.011 8.29599 78.886 9.25699 76.768 9.80199C76.642 9.83299 76.359 9.89899 76.346 10.129C76.346 10.757 78.045 9.44199 78.056 11.769V19.19C78.056 20.785 76.79 20.789 76.565 20.811L76.265 20.817C75.73 20.765 74.8 20.529 74.8 19.522V8.77699C74.8 8.47799 74.649 8.29999 74.498 8.29999C73.92 8.29999 73.548 9.35199 71.938 9.88999C71.812 9.91899 71.581 9.94499 71.581 10.125C71.581 10.753 73.025 9.53399 72.964 11.771V18.833C73.016 20.559 72.123 20.791 71.568 20.809C70.898 20.728 70.387 20.456 70.387 19.432V14.435C70.387 11.861 69.406 8.53799 66.187 8.53799C64.753 8.53799 63.521 9.32799 62.566 10.404V1.80199C62.566 1.50299 62.414 1.33199 62.264 1.32299C61.877 1.29899 61.228 2.48199 59.392 2.90099C59.266 2.92999 58.793 2.96899 58.793 3.14899C58.793 3.77699 60.698 2.85099 60.73 4.79399V19.461C60.73 20.929 59.474 20.728 59.246 21.197C59.207 21.401 59.321 21.496 59.498 21.496C59.9 21.496 61.006 21.379 61.786 21.379L64.351 21.496C64.653 21.496 64.779 21.437 64.779 21.077C64.516 20.567 62.566 21.347 62.566 18.773V12.459C62.566 10.933 64.377 9.76499 65.508 9.76499C66.388 9.76499 68.551 10.454 68.551 14.165V19.641C68.551 20.719 67.407 20.831 67.319 21.169C67.319 21.408 67.47 21.496 67.721 21.496C67.998 21.496 68.802 21.379 69.784 21.379L71.244 21.432C71.471 21.475 71.796 21.481 72.2 21.483C72.476 21.483 73.165 21.379 73.97 21.379C74.765 21.379 75.407 21.447 75.902 21.479L76.195 21.491L76.309 21.496L77.025 21.494C77.327 21.494 77.83 21.375 79.162 21.375C80.621 21.375 81.124 21.494 81.552 21.494C81.929 21.494 82.362 21.327 82.105 21.076ZM109.312 9.21099C112.305 9.21099 113.386 12.404 113.386 15.53C113.386 19.292 112.053 20.787 109.941 20.787C106.998 20.787 105.842 17.138 105.842 14.163C105.842 11.585 106.848 9.21099 109.312 9.21099ZM93.346 8.84699C95.394 8.84699 96.212 10.948 96.212 12.792C96.212 14.667 95.357 16.117 93.446 16.117C91.426 16.117 90.751 14.167 90.751 12.323C90.751 10.421 91.325 8.84699 93.346 8.84699ZM91.488 20.554C91.692 20.541 91.748 20.627 94.05 20.721C96.431 20.776 97.288 21.474 97.434 22.087C97.693 23.175 96.918 25.507 93.501 25.281C91.351 25.141 90.722 24.119 90.555 23.882C89.754 22.747 90.415 20.618 91.488 20.554ZM67.991 30.294C67.991 30.047 67.488 29.202 67.263 29.202C67.056 29.202 66.536 30.067 66.536 30.294C66.536 30.521 67.056 31.365 67.263 31.365C67.488 31.365 67.991 30.541 67.991 30.294ZM76.73 39.605V36.122C76.73 34.517 76.214 32.174 73.837 32.174C72.117 32.174 71.229 33.806 71.265 33.553V32.342C71.265 32.131 71.158 32.004 71.052 32.004C70.643 32.004 70.34 32.697 68.953 33.113C68.863 33.134 68.609 33.136 68.6 33.297C68.6 33.74 69.993 32.72 69.97 34.454V39.689C69.97 40.672 69.49 40.748 69.139 40.842C69.116 40.843 69.1 40.839 69.072 40.844C68.716 40.823 67.956 40.684 67.956 39.922V32.342C67.956 32.131 67.85 32.005 67.744 32.005C67.336 32.005 67.073 32.747 65.938 33.127C65.848 33.148 65.685 33.166 65.685 33.293C65.685 33.736 66.704 32.876 66.661 34.454V39.437C66.7 40.711 66.004 40.833 65.62 40.833C65.045 40.825 65.188 40.898 65.188 41.077C65.206 41.288 65.552 41.303 66.122 41.306C66.317 41.306 66.803 41.232 67.371 41.232C68.099 41.232 68.648 41.315 69.021 41.315C69.235 41.315 69.81 41.231 70.75 41.231C71.78 41.231 72.135 41.315 72.435 41.315C72.702 41.315 73.008 41.198 72.826 41.02C72.54 40.74 71.265 41.062 71.265 39.605V34.749C71.247 34.411 71.868 33.103 73.359 33.103C74.796 33.103 75.434 34.686 75.434 35.742V39.689C75.416 41.239 74.881 40.749 74.671 41.062C74.553 41.237 74.759 41.315 74.99 41.315C75.221 41.315 75.594 41.231 76.267 41.231C77.137 41.231 77.518 41.311 77.748 41.311C77.926 41.311 78.249 41.175 78.05 41.015C77.602 40.654 76.718 41.204 76.73 39.605ZM94.119 39.22C93.909 39.22 93.383 40.104 93.383 40.336C93.383 40.568 93.909 41.429 94.119 41.429C94.347 41.429 94.856 40.588 94.856 40.336C94.856 40.084 94.347 39.22 94.119 39.22ZM117.212 39.984V32.564C117.212 32.144 116.977 32.034 116.911 32.034C116.643 32.034 116.493 32.1 116.308 32.144C116.125 32.211 115.91 32.306 115.426 32.306C115.341 32.306 114.878 32.229 114.907 32.476C114.936 32.723 115.983 32.582 115.992 33.317V38.685C115.91 39.621 115.122 40.655 114.169 40.655C113.952 40.655 112.531 40.501 112.547 38.157V32.564C112.547 32.144 112.313 32.034 112.248 32.034C111.979 32.034 111.829 32.1 111.645 32.144C111.461 32.211 111.226 32.296 110.741 32.278C110.483 32.268 110.196 32.229 110.242 32.476C110.283 32.696 111.327 32.476 111.327 33.317V38.467C111.327 40.347 112.43 41.429 113.768 41.429C114.655 41.429 115.474 41.236 115.992 40.197H116.025V41.098C116.025 41.186 116.041 41.429 116.175 41.429C116.425 41.429 116.56 41.22 116.744 41.154C116.945 41.109 116.996 40.926 117.62 40.87C117.885 40.847 118.183 40.706 118.183 40.528C118.087 40.152 117.212 40.558 117.212 39.984Z" fill="#23201F"/>
<path d="M106.736 32.012C104.501 32.012 102.78 34.259 102.78 36.892C102.78 38.079 103.073 39.044 103.566 39.784C103.022 40.176 102.039 40.546 100.157 40.546C98.6961 40.546 98.8341 40.042 98.8341 38.803V28.901C98.8341 27.074 100.201 27.607 100.229 27.274C100.249 27.043 100.038 27.095 99.8111 27.095C99.5501 27.095 99.0811 27.197 98.0901 27.197C97.2361 27.197 96.4861 27.117 96.1211 27.117C95.8931 27.117 95.6891 27.18 95.7661 27.354C95.9361 27.744 97.2291 27.39 97.2291 28.481V38.824C97.2291 39.811 97.3771 40.442 96.9241 40.695C96.3681 41.03 95.7181 41.047 95.7721 41.265C95.8071 41.401 96.0801 41.407 96.2361 41.407L98.5911 41.301C99.9161 41.259 101.237 41.385 102.561 41.385C103.328 41.385 103.52 41.23 104.076 40.474L104.111 40.428C104.799 41.072 105.706 41.429 106.755 41.429C108.936 41.429 110.588 39.417 110.588 36.785C110.588 32.803 108.086 32.012 106.736 32.012ZM106.914 40.815C104.839 40.815 104.023 38.241 104.023 36.142C104.023 34.323 104.733 32.648 106.471 32.648C108.581 32.648 109.345 34.901 109.345 37.106C109.345 39.76 108.404 40.815 106.914 40.815ZM84.9671 33.628C84.4581 33.373 83.6991 32.916 83.3261 32.701C81.7021 31.768 81.0621 31.157 81.0171 30.285C80.9401 28.774 82.4161 27.878 83.4731 27.988C84.8141 27.988 85.9221 28.802 86.3791 30.545C86.4261 30.727 86.5941 31.154 86.7631 31.154C86.9141 31.154 86.9441 31.011 86.9291 30.849L86.7011 28.093C86.6851 27.871 86.6101 27.81 86.5181 27.81C86.3661 27.81 86.2731 28.033 86.1361 28.033C85.9221 28.033 85.3801 27.267 83.5351 27.284C83.4121 27.28 83.2441 27.299 83.2441 27.299C81.4421 27.268 79.7511 28.465 79.8051 31.002C79.8531 33.312 82.4431 34.632 83.8391 35.511C84.8721 36.128 85.9541 37.117 85.9201 38.214C85.8671 39.904 84.8081 41.01 83.4671 40.916C80.3241 40.86 80.7551 36.719 80.1881 36.719C79.8001 36.719 79.8791 37.761 79.8771 38.313C79.8741 39.625 79.8221 40.701 79.9731 40.891C80.0201 40.952 80.1721 40.923 80.4781 40.923C81.0971 40.923 81.8521 41.642 83.6611 41.642C85.6861 41.675 87.3471 39.801 87.3471 37.362C87.3471 35.86 86.9291 34.905 84.9671 33.628ZM119.649 30.294C119.649 30.521 120.168 31.365 120.377 31.365C120.602 31.365 121.104 30.541 121.104 30.294C121.104 30.047 120.602 29.202 120.377 29.202C120.168 29.202 119.649 30.067 119.649 30.294ZM122.184 40.843C121.83 40.822 121.07 40.684 121.07 39.922V32.341C121.07 32.13 120.963 32.005 120.856 32.005C120.448 32.005 120.187 32.747 119.05 33.127C118.962 33.147 118.799 33.166 118.799 33.292C118.799 33.736 119.817 32.875 119.774 34.453V39.436C119.814 40.711 119.118 40.833 118.733 40.833C118.158 40.825 118.302 40.897 118.302 41.076C118.319 41.287 118.666 41.303 119.235 41.306C119.43 41.306 119.915 41.232 120.484 41.232C121.211 41.232 121.762 41.315 122.133 41.315C122.365 41.315 122.652 40.764 122.184 40.843ZM126.275 36.124L125.146 35.518C124.033 34.907 123.594 34.508 123.563 33.938C123.512 32.951 124.349 32.441 125.076 32.512C126.814 32.481 127.047 34.428 127.225 34.428C127.49 34.428 127.42 34.173 127.42 33.599C127.42 33.45 127.437 32.727 127.331 32.557C127.117 32.239 125.888 32.051 125.587 32.051C125.512 32.051 125.227 32.043 125.178 32.042C125.093 32.039 124.983 32.051 124.983 32.051C123.746 32.031 122.588 32.815 122.625 34.473C122.659 35.983 124.435 36.844 125.392 37.42C126.102 37.823 126.937 38.207 126.927 39.175C126.913 40.279 126.057 41.011 125.137 40.95C122.98 40.914 123.276 38.208 122.886 38.208C122.621 38.208 122.676 38.889 122.674 39.25C122.67 40.105 122.635 40.809 122.739 40.934C122.772 40.973 122.875 40.954 123.085 40.954C123.51 40.954 124.03 41.424 125.269 41.424C126.661 41.445 127.907 40.157 127.907 38.564C127.907 37.583 127.622 36.958 126.275 36.124ZM92.8961 40.01C92.7171 40.096 92.3101 40.537 91.3401 40.537C90.6081 40.537 90.1841 40.102 90.1481 39.163V33.122L92.4621 33.116C92.6141 33.116 92.9081 32.127 92.9181 32.076L93.0001 31.762C93.0281 31.573 92.8821 31.556 92.7501 31.756C92.6421 31.858 92.5291 32.132 92.0731 32.132H90.1511C90.1511 30.482 90.1701 30.051 89.9141 30.051C89.6671 30.051 89.7051 30.117 89.4821 30.853C89.1101 32.081 87.7591 32.62 87.3281 32.887C87.2231 32.939 87.2281 32.958 87.2241 33.02C87.2151 33.177 87.7371 33.112 88.8111 33.141L88.8071 38.668C88.8071 41.028 89.9301 41.429 90.7731 41.429C92.0541 41.429 92.9701 40.517 93.0231 40.195C93.0231 40.011 93.0001 39.994 92.8961 40.01ZM37.1931 39.255C36.8031 39.255 36.2171 40.364 34.6881 40.364C33.6031 40.364 31.8271 39.319 31.8271 35.801H36.5551C36.9631 35.801 37.1591 35.823 37.1591 35.44C37.1591 34.587 36.1991 32.05 34.0131 32.05C31.7911 32.05 30.5291 34.33 30.5291 37.059C30.5291 38.466 31.4541 41.429 34.1191 41.429C35.7191 41.429 37.2651 39.895 37.2651 39.404C37.2651 39.34 37.2651 39.255 37.1931 39.255ZM33.7111 32.54C34.6881 32.54 35.6831 33.606 35.6831 34.799C35.6831 35.119 35.5771 35.226 35.3281 35.226H31.8271C31.8271 34.053 32.6081 32.54 33.7111 32.54ZM11.7511 27.349C11.4691 27.349 10.8161 27.42 10.5181 27.42C9.90606 27.42 9.39706 27.362 8.78506 27.362C8.73806 27.362 8.47206 27.396 8.47106 27.486C8.46606 27.92 9.92906 27.414 9.92906 29.264V36.509C9.92906 38.65 9.25506 40.899 6.30606 40.899C4.18906 40.899 3.04206 39.575 3.04206 36.672V28.792C3.04206 27.486 4.06506 27.767 4.08706 27.476C4.10806 27.196 3.18106 27.362 3.10306 27.362L1.77206 27.412C1.34906 27.412 0.835058 27.349 0.428058 27.349C0.350058 27.349 0.060058 27.333 0.012058 27.45C-0.146942 27.837 1.31906 27.631 1.31906 28.702V36.182C1.31906 38.977 2.10406 41.712 6.22806 41.643C11.1191 41.561 11.0271 37.163 11.0271 36.274V29.282C11.0271 27.613 11.8451 27.771 12.0001 27.513C12.0701 27.399 11.8301 27.349 11.7511 27.349ZM31.3161 32.481C31.4351 32.342 31.4721 32.117 30.9221 32.165C30.6201 32.165 30.3921 32.218 30.0891 32.218C29.6991 32.218 29.6251 32.205 29.2521 32.191C28.7871 32.175 28.6601 32.226 28.6871 32.366C28.7681 32.78 29.7471 32.375 29.6151 33.598C29.5021 34.625 29.1701 35.509 28.8321 36.386L27.6421 39.548L25.9001 34.278L25.5991 33.203C25.5991 32.543 26.3951 32.695 26.5721 32.418C26.6841 32.241 26.4511 32.148 26.2021 32.148C25.9901 32.148 25.7451 32.222 25.0881 32.237C24.5431 32.252 24.1571 32.248 23.9181 32.205C23.3051 32.094 23.3551 32.432 23.5681 32.539C23.7811 32.646 23.8811 32.547 24.1941 33.466L26.8771 41.042C26.9321 41.195 27.0021 41.568 27.2341 41.568C27.5001 41.568 27.5001 41.305 27.8371 40.405L30.5791 32.969C30.9261 32.459 31.1891 32.627 31.3161 32.481Z" fill="#23201F"/>
<path d="M41.2201 32.136C40.4931 32.136 39.9851 33.013 39.6211 33.618H39.5881V32.303C39.5881 32.095 39.4841 31.969 39.3801 31.969C39.1021 31.969 38.8881 32.529 37.4141 32.877C37.3271 32.898 37.0811 32.946 37.0811 33.071C37.0811 33.511 38.3271 32.939 38.3261 34.39V39.917C38.3261 40.772 37.4431 40.689 37.4431 41.129C37.4431 41.253 37.4951 41.315 37.6341 41.315C37.7541 41.315 38.0671 41.232 39.2241 41.232C40.1931 41.232 40.6071 41.315 40.8491 41.315C41.0391 41.315 41.1251 41.274 41.1251 41.086C41.1251 40.417 39.5881 41.42 39.5881 39.479V34.766C39.5881 34.495 40.0021 33.535 40.7111 33.535C41.3331 33.535 41.4111 34.015 41.7381 34.015C41.9461 34.015 42.3601 33.389 42.3601 33.075C42.3601 32.68 41.5831 32.136 41.2201 32.136ZM60.2481 41.362L60.2041 41.492L60.1941 41.525L60.2481 41.362Z" fill="#23201F"/>
<path d="M63.52 32.205L62.434 32.233C61.915 32.233 61.66 32.171 61.438 32.171C61.104 32.171 60.782 32.174 60.839 32.391C60.904 32.638 62.026 32.55 62.026 33.771C62.026 33.928 62.026 34.133 61.803 34.945L60.376 39.489L58.392 33.906C58.392 33.906 58.299 33.726 58.299 33.363C58.299 32.46 59.355 32.559 59.396 32.398C59.43 32.266 59.252 32.128 58.974 32.128L57.584 32.131L57.29 32.134L56.491 32.128C56.48 32.128 56.473 32.134 56.46 32.134H54.539C54.539 30.483 54.557 30.052 54.301 30.052C54.054 30.052 54.092 30.119 53.869 30.854C53.499 32.082 52.146 32.621 51.715 32.888C51.61 32.939 51.615 32.959 51.611 33.022C51.602 33.178 52.125 33.114 53.199 33.142L53.194 38.668C53.194 41.029 54.317 41.429 55.16 41.429C56.442 41.429 57.358 40.519 57.411 40.196C57.411 40.013 57.388 39.995 57.284 40.011C57.105 40.098 56.699 40.538 55.727 40.538C54.995 40.538 54.571 40.103 54.535 39.163V33.123L56.729 33.117C56.755 33.158 56.78 33.2 56.797 33.25L58.847 39.039C59.014 39.513 59.112 39.667 59.313 40.506C59.445 41.052 59.396 41.54 59.396 41.54C59.198 42.41 58.663 42.909 57.848 44.514C57.769 44.67 59.024 44.499 59.086 44.479C59.188 44.448 59.176 44.42 59.298 44.192L60.203 41.492L62.731 33.726C63.101 32.369 63.688 32.617 63.778 32.432C63.831 32.318 63.743 32.205 63.52 32.205ZM50.143 29.201C49.934 29.201 49.415 30.066 49.415 30.293C49.415 30.52 49.934 31.365 50.143 31.365C50.368 31.365 50.87 30.541 50.87 30.293C50.87 30.045 50.368 29.201 50.143 29.201ZM51.95 40.843C51.595 40.822 50.836 40.684 50.836 39.922V32.341C50.836 32.13 50.728 32.005 50.622 32.005C50.214 32.005 49.952 32.747 48.816 33.127C48.728 33.147 48.565 33.166 48.565 33.292C48.565 33.736 49.583 32.875 49.54 34.453V39.436C49.579 40.711 48.883 40.833 48.499 40.833C47.923 40.825 48.067 40.897 48.067 41.076C48.084 41.287 48.431 41.303 49.001 41.306C49.196 41.306 49.681 41.232 50.25 41.232C50.977 41.232 51.528 41.315 51.9 41.315C52.13 41.315 52.418 40.764 51.95 40.843ZM22.091 31.365C22.316 31.365 22.819 30.541 22.819 30.294C22.819 30.047 22.316 29.201 22.091 29.201C21.884 29.201 21.364 30.067 21.364 30.294C21.364 30.521 21.884 31.365 22.091 31.365ZM23.9 40.843C23.544 40.822 22.784 40.684 22.784 39.922V32.341C22.784 32.13 22.678 32.005 22.572 32.005C22.164 32.005 21.901 32.747 20.766 33.127C20.676 33.147 20.513 33.166 20.513 33.292C20.513 33.736 21.531 32.875 21.489 34.453V39.436C21.528 40.711 20.832 40.833 20.448 40.833C20.4 40.832 20.364 40.833 20.326 40.833C19.954 40.767 19.604 40.615 19.611 39.604V36.122C19.611 34.517 19.096 32.173 16.719 32.173C14.998 32.173 14.111 33.805 14.147 33.553V32.341C14.147 32.13 14.04 32.003 13.934 32.003C13.526 32.003 13.222 32.696 11.834 33.112C11.745 33.133 11.491 33.136 11.481 33.296C11.481 33.739 12.875 32.72 12.851 34.453V39.689C12.851 41.062 11.928 40.73 11.718 41.089C11.611 41.272 11.893 41.315 12.124 41.315C12.337 41.315 12.692 41.23 13.632 41.23C14.661 41.23 15.016 41.315 15.317 41.315C15.584 41.315 15.889 41.198 15.708 41.019C15.422 40.739 14.147 41.062 14.147 39.604V34.749C14.129 34.411 14.749 33.102 16.24 33.102C17.677 33.102 18.316 34.685 18.316 35.741V39.689C18.298 41.238 17.763 40.748 17.553 41.062C17.435 41.237 17.641 41.315 17.871 41.315C18.101 41.315 18.475 41.23 19.149 41.23C20.018 41.23 20.399 41.311 20.63 41.311C20.648 41.311 20.672 41.304 20.693 41.301L20.95 41.306C21.145 41.306 21.631 41.232 22.199 41.232C22.927 41.232 23.476 41.315 23.849 41.315C24.08 41.315 24.368 40.764 23.9 40.843ZM46.315 36.119L45.187 35.513C44.074 34.902 43.634 34.503 43.603 33.935C43.552 32.946 44.39 32.436 45.117 32.507C46.854 32.476 47.087 34.423 47.265 34.423C47.53 34.423 47.46 34.168 47.46 33.594C47.46 33.445 47.478 32.722 47.371 32.552C47.158 32.234 45.929 32.047 45.627 32.047C45.552 32.047 45.267 32.038 45.218 32.037C45.133 32.034 45.025 32.047 45.025 32.047C43.786 32.026 42.629 32.81 42.665 34.468C42.699 35.978 44.475 36.839 45.434 37.415C46.143 37.817 46.977 38.202 46.967 39.17C46.954 40.275 46.097 41.007 45.178 40.946C43.02 40.91 43.316 38.204 42.927 38.204C42.662 38.204 42.716 38.884 42.715 39.245C42.712 40.102 42.677 40.805 42.779 40.931C42.812 40.97 42.917 40.95 43.125 40.95C43.55 40.95 44.07 41.42 45.311 41.42C46.701 41.441 47.949 40.153 47.949 38.559C47.949 37.578 47.662 36.953 46.315 36.119Z" fill="#23201F"/>
<path d="M10.155 1.177H10.154H10.153C10.067 1.178 5.876 1.217 0 0V16.906V16.941L0.006 17.401L0.007 17.415V17.429C0.046 18.216 0.28 18.842 0.747 19.377C1.055 19.708 1.484 20.054 2.083 20.388C2.259 20.484 2.437 20.575 2.617 20.661C2.769 20.732 2.922 20.799 3.077 20.862L3.749 21.147L10.154 23.571L16.559 21.147C16.696 21.096 17.104 20.914 17.231 20.862H17.232C17.387 20.799 17.54 20.732 17.691 20.661C17.883 20.569 18.061 20.478 18.226 20.388C18.824 20.054 19.254 19.708 19.561 19.377C20.029 18.842 20.263 18.216 20.301 17.429L20.302 17.415V17.401L20.309 16.941V16.906V0C14.433 1.217 10.241 1.178 10.155 1.177Z" fill="#23201F"/>
<path d="M10.1551 2.184H10.1541C10.0751 2.185 6.24212 2.22 0.870117 1.108V5.44C6.24212 6.552 10.0751 6.517 10.1541 6.516H10.1551C10.2341 6.517 14.0661 6.552 19.4381 5.44V1.108C14.0661 2.22 10.2341 2.185 10.1551 2.184Z" fill="white"/>
<path d="M10.1551 6.515H10.1541C10.0751 6.516 6.24212 6.551 0.870117 5.439V10.726V15.058C6.24212 16.17 10.0751 16.134 10.1541 16.133H10.1551C10.2341 16.134 14.0661 16.17 19.4381 15.058V10.726V5.439C14.0661 6.551 10.2341 6.516 10.1551 6.515Z" fill="#23201F"/>
<path d="M0.877117 17.029L0.878117 17.042C0.913117 17.761 1.12712 18.334 1.55412 18.822C1.83512 19.125 2.22812 19.441 2.77512 19.747L3.26312 19.996L3.68412 20.18L4.29912 20.441L10.1541 22.657L16.0101 20.441L16.6251 20.181L17.0451 19.996L17.5341 19.747C18.0811 19.441 18.4741 19.125 18.7551 18.822C19.1821 18.334 19.3961 17.761 19.4311 17.042L19.4321 17.029V17.016L19.4381 16.596V16.564V15.058C14.0661 16.17 10.2341 16.134 10.1551 16.133C10.0761 16.134 6.24312 16.17 0.870117 15.058V16.596L0.877117 17.016C0.877117 17.016 0.877117 17.029 0.877117 17.029Z" fill="white"/>
<path fill-rule="evenodd" clip-rule="evenodd" d="M4.14491 2.12399L4.58191 3.42599L5.95291 3.43799L4.85191 4.25399L5.26291 5.56399L4.14491 4.76799L3.02791 5.56399L3.43891 4.25399L2.33691 3.43799L3.70891 3.42599L4.14491 2.12399Z" fill="#23201F"/>
<path fill-rule="evenodd" clip-rule="evenodd" d="M16.164 2.12399L16.601 3.42599L17.972 3.43799L16.871 4.25399L17.282 5.56399L16.164 4.76799L15.047 5.56399L15.458 4.25399L14.356 3.43799L15.728 3.42599L16.164 2.12399Z" fill="#23201F"/>
<path fill-rule="evenodd" clip-rule="evenodd" d="M10.1547 2.63L10.5917 3.932L11.9627 3.944L10.8617 4.76L11.2727 6.07L10.1547 5.274L9.03668 6.07L9.44868 4.76L8.34668 3.944L9.71868 3.932L10.1547 2.63Z" fill="#23201F"/>
<path d="M10.1547 16.479L9.67373 16.961V18.264L9.92073 18.951V20.114H10.3887V18.951L10.6357 18.264V16.961L10.1547 16.479ZM10.3877 21.162V20.465H9.92073V21.162L9.67373 21.615L10.1537 22.21L10.6347 21.615L10.3877 21.162ZM10.7367 20.465V21.001L11.0487 21.338L11.5907 20.904V20.465H10.7367ZM11.3167 18.313L10.7367 18.951V20.114H11.2037V19.423L11.6597 18.929H11.6607L12.2377 19.304L12.6097 18.929V18.313H11.3167ZM9.57173 20.465V21.001L9.25973 21.338L8.71773 20.904V20.465H9.57173ZM8.99173 18.313L9.57173 18.951V20.114H9.10473V19.423L8.64873 18.929H8.64773L8.07073 19.304L7.69873 18.929V18.313H8.99173Z" fill="#23201F"/>
<path d="M14.5793 8.04199V13.56H10.8703L10.6113 13.784L10.1543 14.179L9.69831 13.784L9.43931 13.56H5.73031V8.04199L4.94531 8.61799V14.34H9.31431L9.69831 14.673L10.1543 15.068L10.6113 14.673L10.9953 14.34H15.3643V8.61799L14.5793 8.04199Z" fill="white"/>
<path d="M10.7491 7.58099L10.6111 7.70099L10.1541 8.09599L9.69809 7.70099L9.55909 7.58099H6.51509V12.779H9.56609L9.77909 12.963L10.1541 13.289L10.5301 12.963L10.7431 12.779H13.7941V7.58099H10.7491ZM16.1641 9.19699V12.719L19.4391 12.142V8.61999L16.1641 9.19699ZM4.14509 9.19699L0.871094 8.61999V12.142L4.14509 12.719V9.19699Z" fill="white"/>
<path d="M16.1638 16.011L15.8268 16.348V17.26L15.9998 17.741V18.556H16.3278V17.741L16.5008 17.26V16.348L16.1638 16.011ZM16.3268 19.29V18.802H15.9998V19.29L15.8268 19.607L16.1628 20.024L16.4998 19.607L16.3268 19.29ZM16.5708 18.802V19.177L16.7898 19.413L17.1688 19.109V18.802H16.5708V18.802ZM16.9778 17.295L16.5718 17.742V18.556H16.8988V18.072L17.2178 17.726H17.2188L17.6228 17.989L17.8828 17.726V17.295H16.9778ZM15.7558 18.802V19.177L15.5368 19.413L15.1578 19.109V18.802H15.7558V18.802ZM15.3498 17.295L15.7558 17.742V18.556H15.4288V18.072L15.1098 17.726H15.1088L14.7048 17.989L14.4448 17.726V17.295H15.3498ZM4.14478 16.011L3.80878 16.348V17.26L3.98078 17.741V18.556H4.30878V17.741L4.48178 17.26V16.348L4.14478 16.011ZM4.30878 19.29V18.802H3.98178V19.29L3.80878 19.607L4.14478 20.024L4.48178 19.607L4.30878 19.29ZM4.55278 18.802V19.177L4.77178 19.413L5.15078 19.109V18.802H4.55278V18.802ZM4.95878 17.295L4.55278 17.742V18.556H4.87978V18.072L5.19878 17.726H5.19978L5.60378 17.989L5.86378 17.726V17.295H4.95878ZM3.73678 18.802V19.177L3.51778 19.413L3.13878 19.109V18.802H3.73678V18.802ZM3.33078 17.295L3.73678 17.742V18.556H3.40978V18.072L3.09078 17.726H3.08978L2.68578 17.989L2.42578 17.726V17.295H3.33078Z" fill="#23201F"/>
</g>
<defs>
<clipPath id="clip0_1013_2674">
<rect width="127.907" height="44.579" fill="white"/>
</clipPath>
</defs>
</svg>