<svg width="770" height="316" viewBox="0 0 770 316" fill="none" xmlns="http://www.w3.org/2000/svg">
<g clip-path="url(#clip0_1008_2597)">
<path d="M245.75 0.459991C255.83 0.459991 265.9 0.459991 275.97 0.459991C275.99 38.9733 276 77.4867 276 116H287.83C287.83 121.82 287.83 127.65 287.83 133.48H246C246 127.64 246 121.81 246 115.99H257.74C257.74 83.3233 257.74 50.6167 257.74 17.87C253.74 17.87 249.74 17.87 245.74 17.87C245.74 12.0567 245.74 6.25001 245.74 0.450012M298.74 0.450012C308.813 0.450012 318.886 0.450012 328.96 0.450012V116H340.81V133.49H298.93V116H310.68V17.88H298.75C298.75 12.07 298.75 6.27001 298.75 0.480011M206.21 2.67001C213.89 -1.09999 224.52 3.77999 225.42 12.61C227.19 20.81 220.2 29.31 211.7 28.55C203.94 28.86 197.7 21.31 198.7 13.78C198.83 11.4249 199.595 9.14892 200.914 7.19312C202.232 5.23731 204.055 3.67445 206.19 2.67001M368.34 2.59C376.89 -1.59 388.27 5.25001 387.55 15.01C388.26 24.81 376.84 31.59 368.27 27.42C358.09 23.34 358.17 6.65 368.34 2.59ZM0.769531 10.28C15.7695 10.28 30.8295 10.28 45.8595 10.28V27.87H32.4195C40.1395 51.29 47.8795 74.73 55.6395 98.19C64.3995 74.75 73.1495 51.31 81.8895 27.87H69.4095C69.4095 22 69.4095 16.14 69.4095 10.28C84.5095 10.28 99.6029 10.28 114.69 10.28C114.69 16.13 114.69 21.99 114.69 27.85H101.41C110.13 51.35 118.873 74.84 127.64 98.32C135.813 74.8533 143.946 51.3633 152.04 27.85C147.5 27.85 142.94 27.85 138.39 27.85C138.39 21.99 138.39 16.13 138.39 10.28C153.276 10.28 168.156 10.28 183.03 10.28C183.03 16.13 183.03 21.99 183.03 27.84C178.863 27.84 174.7 27.84 170.54 27.84C160 57.1733 149.483 86.5233 138.99 115.89H151.09V133.48H104.36C104.36 127.62 104.36 121.757 104.36 115.89H116.66C108.32 93.33 99.9562 70.7733 91.5695 48.22C83.1495 70.78 74.7329 93.3433 66.3195 115.91C70.3195 115.91 74.3195 115.91 78.3195 115.91C78.3195 121.78 78.3195 127.64 78.3195 133.5H31.4995C31.4995 127.647 31.4995 121.787 31.4995 115.92H43.2795C33.2395 86.5867 23.2229 57.2367 13.2295 27.87C9.06953 27.87 4.92953 27.87 0.769531 27.87C0.769531 22.02 0.769531 16.16 0.769531 10.31M409.1 59.81C416.7 48.62 429.56 40.81 443.2 40.48C451.97 40.34 461.26 41.81 468.44 47.18C472.94 50.42 475.85 55.33 477.65 60.49C477.56 54.43 477.65 48.38 477.65 42.31C487.43 42.31 497.22 42.31 507.01 42.31V59.79H495V116H507V133.5H477.63C477.63 126.65 477.63 119.8 477.63 112.95C475.24 120.95 469.85 128.06 462.22 131.57C456.908 134.01 451.142 135.303 445.297 135.363C439.452 135.424 433.66 134.25 428.3 131.92C421.911 129.022 416.253 124.728 411.743 119.355C407.233 113.981 403.986 107.665 402.24 100.87C398.69 87.05 400.94 71.6 409.09 59.77M442.55 58.15C436.264 59.4243 430.596 62.7907 426.47 67.7C416 80 417.35 100.43 429.59 111C440.4 120.77 458.54 120.24 468.91 110.07C480.41 99.39 481.41 79.72 471.15 67.88C464.4 59.65 452.93 55.93 442.57 58.14M566.57 41.84C575.57 39.27 585.9 40.02 594.01 44.97C599.59 48.34 603.279 53.97 605.539 59.97C609.629 50.36 618.35 42.66 628.78 40.97C639.66 39.2 652.1 41.35 659.95 49.63C667.03 57.05 669.31 67.69 669.5 77.63C669.58 90.4 669.5 103.17 669.5 115.95H681C681 121.77 681 127.6 681 133.43H639.21C639.21 127.597 639.21 121.77 639.21 115.95H651.049C651.049 103.43 651.109 90.95 651.049 78.41C650.949 70.97 648.35 62.57 641.33 58.9C634.25 55.4 625.17 55.54 618.43 59.79C611.94 64.05 609.43 72.15 609.21 79.55C609.08 91.68 609.21 103.81 609.15 115.95H620.409C620.409 121.77 620.409 127.6 620.409 133.44H579.409C579.409 127.607 579.409 121.78 579.409 115.96H590.69C590.69 103.02 590.74 90.09 590.69 77.17C590.61 69.88 587.76 61.67 580.69 58.48C573.01 55.22 563.16 55.69 556.63 61.22C551.11 66.03 549.179 73.65 549.049 80.73C548.989 92.47 549.049 104.22 549.049 115.97H560.799C560.799 121.79 560.799 127.63 560.799 133.46H518.74C518.74 127.627 518.74 121.8 518.74 115.98H530.59C530.59 97.24 530.59 78.4933 530.59 59.74H518.59C518.59 53.9067 518.59 48.08 518.59 42.26C528.63 42.26 538.673 42.26 548.719 42.26C548.719 47.47 548.719 52.7 548.719 57.92C552.179 50.41 558.58 44.12 566.64 41.82M700 47.44C708.32 39.94 720.56 39.04 731 41.44C738.58 43.14 745.469 48.07 748.719 55.24C747.956 50.9718 747.674 46.6312 747.88 42.3C753.58 42.3 759.29 42.3 765 42.3C765 52.19 765 62.1 765 72H749.34C744.51 59.68 729.899 52.73 717.289 56.49C712.289 57.94 708.96 63.54 710.52 68.58C711.89 72.58 716.209 74.4 719.909 75.68C731.709 79.38 744.5 79.98 755.69 85.68C761.46 88.52 766.52 93.42 768.25 99.77C771.04 110.14 767.839 122.27 759.359 129.12C752.199 135.12 742.26 136.25 733.31 134.85C722.86 133.52 712.489 127.85 707.719 118.09C709.239 123.09 709.049 128.33 708.979 133.5H691.87C691.87 122.553 691.87 111.603 691.87 100.65C697.09 100.65 702.319 100.65 707.549 100.65C713.599 113.43 728.68 122.19 742.77 118.58C748.77 117.3 752.4 110.4 750.43 104.7C748.81 100.86 744.579 99.18 740.909 97.96C727.459 93.8 712.32 93.82 700.46 85.45C688.18 76.8 689.01 56.83 699.96 47.45M190.44 42.29C200.87 42.29 211.31 42.29 221.74 42.29C221.74 66.8567 221.74 91.43 221.74 116.01H235.56V133.5H189.56C189.56 127.66 189.56 121.83 189.56 116.01H203.35V59.78H190.44C190.44 53.94 190.44 48.11 190.44 42.28M352.44 42.28C362.86 42.28 373.29 42.28 383.73 42.28C383.73 66.86 383.73 91.43 383.73 115.99C388.32 115.99 392.93 115.99 397.53 115.99V133.5H351.53C351.53 127.67 351.53 121.83 351.53 116.01H365.44V59.79H352.44C352.44 53.9567 352.44 48.13 352.44 42.31M246 144.42H276.22C276.22 182.92 276.22 221.433 276.22 259.96C280.16 259.96 284.11 259.96 288.05 259.96C288.12 265.8 288.05 271.66 288.05 277.5C274.05 277.5 260.05 277.5 246.05 277.5C246.05 271.67 246.05 265.83 246.05 260H257.87C257.87 227.28 257.87 194.567 257.87 161.86C253.87 161.86 249.92 161.86 245.95 161.86V144.42M298.95 144.42C309.03 144.42 319.11 144.42 329.19 144.42C329.19 182.927 329.19 221.44 329.19 259.96H341C341 265.8 341 271.63 341 277.47C327 277.47 313 277.47 299 277.47C299 271.63 299 265.79 299 259.96H310.86C310.86 227.24 310.86 194.527 310.86 161.82H298.93V144.43M28.6995 181C33.6788 173.231 40.3295 166.671 48.1665 161.8C56.0034 156.928 64.8291 153.867 73.9995 152.84C84.5395 151.84 95.6895 152.84 105.12 158C110.63 161.056 115.144 165.636 118.12 171.19C116.81 165.62 117.21 159.88 117.19 154.19H135C135.05 167.28 135 180.38 135 193.48C129.25 193.69 123.51 193.61 117.76 193.73C114.76 186.38 109.76 179.63 102.76 175.73C93.7595 170.73 82.8795 169.63 72.8395 171.4C58.2895 174.06 45.8395 184.99 40.7095 198.79C34.0595 215.73 38.1895 236.61 51.7095 249C66.5795 263.17 91.6395 264.57 108.06 252.3C113.814 247.89 118.451 242.19 121.6 235.66L138.2 244.47C131.25 257.83 119.76 268.93 105.71 274.54C86.4795 282.3 63.4695 280.1 46.2295 268.54C35.8404 261.583 27.8148 251.628 23.2195 240C15.6295 221 17.5095 198.27 28.6995 181ZM185.21 185.11C194.964 183.369 205.019 184.682 214 188.87C219.689 191.55 224.787 195.338 228.996 200.012C233.204 204.685 236.439 210.152 238.51 216.09C240.641 222.268 241.491 228.815 241.01 235.333C240.529 241.851 238.725 248.202 235.71 254C230.493 263.911 221.933 271.652 211.55 275.85C204.833 278.531 197.6 279.667 190.385 279.173C183.17 278.68 176.159 276.57 169.87 273C164.284 269.78 159.416 265.451 155.566 260.28C151.716 255.108 148.964 249.204 147.48 242.93C146.003 236.686 145.792 230.209 146.858 223.882C147.925 217.555 150.248 211.505 153.69 206.09C157.215 200.609 161.834 195.914 167.258 192.3C172.682 188.687 178.793 186.232 185.21 185.09M187.56 202.64C183.765 203.498 180.187 205.127 177.047 207.425C173.908 209.723 171.274 212.642 169.31 216C166.198 221.321 164.724 227.44 165.071 233.594C165.418 239.748 167.57 245.663 171.26 250.6C174.191 254.437 178.059 257.458 182.492 259.371C186.926 261.285 191.776 262.028 196.58 261.53C201.065 261.058 205.374 259.528 209.154 257.066C212.933 254.605 216.074 251.282 218.32 247.37C224.75 236.57 223.62 221.85 215.42 212.28C212.099 208.284 207.745 205.275 202.833 203.582C197.92 201.89 192.637 201.577 187.56 202.68M377 187.48C396.22 180.11 420.53 185.86 432.55 203.12C440.09 213.26 441.76 226.28 441.13 238.57C415.72 238.57 390.31 238.51 364.91 238.57C366.46 245.73 370.23 252.57 376.37 256.83C384.59 262.61 395.56 263.83 405.11 261.07C412.11 259.07 417.66 253.91 421.53 247.92C426.73 251.04 431.92 254.14 437.12 257.27C430.83 266.78 421.38 274.41 410.23 277.27C394.99 281.27 377.61 279.22 364.83 269.6C350.2 258.88 344.14 239.1 347.92 221.69C349.499 214.003 352.992 206.838 358.075 200.858C363.158 194.879 369.667 190.277 377 187.48ZM377.91 205.86C371.9 209.935 367.528 216.008 365.57 223C384.423 223.04 403.28 223.04 422.14 223C420.65 215.87 416.78 209 410.42 205.2C400.62 199.34 387.42 199.47 377.86 205.84M476.86 188.53C487.7 183.16 500.77 183.12 512.01 187.31C515.686 188.731 519.001 190.951 521.715 193.81C524.428 196.668 526.472 200.094 527.7 203.84C527.58 197.96 527.7 192.08 527.64 186.19C537.75 186.19 547.84 186.19 557.95 186.19C557.95 192.03 557.95 197.87 557.95 203.71H546C546 226.19 546 248.677 546 271.17C546.017 277.112 544.839 282.996 542.535 288.473C540.231 293.95 536.849 298.907 532.59 303.05C524.15 311.14 512.45 315.33 500.84 315.53C489.93 315.67 478.66 314.2 468.92 308.98C463.21 305.834 458.18 301.589 454.12 296.49C459.01 292.43 463.95 288.49 468.87 284.42C471.539 288.367 475.053 291.671 479.158 294.093C483.262 296.514 487.853 297.992 492.6 298.42C503.6 300.04 516.379 297.29 522.979 287.58C529.439 278.81 527.79 267.45 527.87 257.27C525.43 264.84 520.48 271.81 513.2 275.34C507.693 277.947 501.677 279.3 495.585 279.3C489.492 279.3 483.476 277.947 477.97 275.34C468.198 270.589 460.359 262.619 455.77 252.77C450.17 240.56 449.577 226.642 454.12 214C458.122 202.875 466.285 193.737 476.89 188.51M490.61 202.64C484.611 204.415 479.369 208.124 475.7 213.19C466.32 225.91 468.46 245.83 481 255.7C492.47 265.21 511.1 263.62 520.89 252.41C532.1 240.41 531.14 219.3 518.49 208.63C514.713 205.382 510.183 203.131 505.313 202.082C500.443 201.034 495.388 201.223 490.61 202.63M590.409 188.03C609.679 179.87 634.59 185.21 647.07 202.54C654.89 212.73 656.72 226.02 656 238.54C630.61 238.54 605.21 238.48 579.82 238.54C581.37 245.73 585.19 252.65 591.37 256.87C599.82 262.73 611.11 263.87 620.82 260.78C627.46 258.63 632.72 253.65 636.45 247.89C641.62 251.14 647.019 253.98 652.039 257.44C645.889 266.06 637.58 273.44 627.31 276.63C610.8 281.78 591.309 279.43 577.799 268.07C563.269 256.07 558.41 234.86 564 217.18C566.001 210.682 569.404 204.701 573.967 199.66C578.53 194.618 584.142 190.638 590.409 188M592.81 205.77C586.818 209.891 582.47 215.992 580.53 223C599.383 223 618.246 223 637.12 223C635.6 215.89 631.73 209 625.38 205.23C620.418 202.33 614.752 200.854 609.006 200.965C603.26 201.076 597.656 202.77 592.81 205.86" fill="#23201F"/>
</g>
<defs>
<clipPath id="clip0_1008_2597">
<rect width="770" height="316" fill="white"/>
</clipPath>
</defs>
</svg>