<svg width="18" height="18" viewBox="0 0 18 18" fill="none" xmlns="http://www.w3.org/2000/svg">
  <path
    d="M5.12296 0.336113C4.19502 0.378372 3.56093 0.525509 3.00718 0.740985C2.43369 0.963505 1.94821 1.26203 1.46308 1.7464C0.977941 2.23077 0.680179 2.71702 0.45766 3.29051C0.242184 3.84461 0.0950466 4.47835 0.0527882 5.40629C0.00983241 6.3357 0 6.63283 0 9C0 11.3672 0.00983241 11.6643 0.0527882 12.5937C0.0950466 13.5217 0.242184 14.1554 0.45766 14.7095C0.680179 15.2826 0.978011 15.7694 1.46308 16.2536C1.94814 16.7378 2.43369 17.0359 3.00718 17.259C3.56198 17.4745 4.19502 17.6216 5.12296 17.6639C6.05286 17.7061 6.3495 17.7167 8.71667 17.7167C11.0838 17.7167 11.381 17.7068 12.3104 17.6639C13.2384 17.6216 13.8721 17.4745 14.4262 17.259C14.9993 17.0359 15.4851 16.738 15.9703 16.2536C16.4554 15.7692 16.7525 15.2826 16.9757 14.7095C17.1912 14.1554 17.339 13.5217 17.3806 12.5937C17.4228 11.6636 17.4326 11.3672 17.4326 9C17.4326 6.63283 17.4228 6.3357 17.3806 5.40629C17.3383 4.47828 17.1912 3.84426 16.9757 3.29051C16.7525 2.71737 16.4546 2.23154 15.9703 1.7464C15.4859 1.26127 14.9993 0.963505 14.4269 0.740985C13.8721 0.525509 13.2383 0.377674 12.3111 0.336113C11.3817 0.293855 11.0845 0.283325 8.71737 0.283325C6.3502 0.283325 6.05286 0.293158 5.12296 0.336113Z"
    fill="white"></path>
  <circle cx="8.57141" cy="9.10962" r="4.45813" fill="#1E1C1B"></circle>
  <circle cx="8.5708" cy="9.10901" r="2.9458" fill="white"></circle>
  <circle r="1.12792" transform="matrix(-1 0 0 1 13.3994 4.33703)" fill="#1E1C1B"></circle>
</svg>
