<svg xmlns="http://www.w3.org/2000/svg" xmlns:xlink="http://www.w3.org/1999/xlink"
  viewBox="0 0 1440 1024" width="1440" height="1024"
  style="width: 100%; height: 100%; transform: translate3d(0px, 0px, 0px); content-visibility: visible;"
  preserveAspectRatio="xMidYMid meet">
  <defs>
    <clipPath id="__lottie_element_2">
      <rect width="1440" height="1024" x="0" y="0"></rect>
    </clipPath>
  </defs>
  <g clip-path="url(#__lottie_element_2)">
    <g style="display: block;" transform="matrix(1,0,0,1,1020.7509765625,592.2069702148438)"
      opacity="0.9999988436257577">
      <g opacity="1" transform="matrix(1,0,0,1,0,0)">
        <path fill="rgb(32,30,29)" fill-opacity="1"
          d=" M82.9489974975586,30.593000411987305 C82.9489974975586,30.593000411987305 87.4489974975586,92.49299621582031 87.4489974975586,92.49299621582031 C88.7490005493164,108.29299926757812 99.7490005493164,112.39299774169922 99.54900360107422,122.39299774169922 C99.54900360107422,122.39299774169922 99.54900360107422,123.79299926757812 99.54900360107422,123.79299926757812 C99.54900360107422,127.89299774169922 96.4489974975586,130.29299926757812 91.3489990234375,130.29299926757812 C91.3489990234375,130.29299926757812 22.948999404907227,130.29299926757812 22.948999404907227,130.29299926757812 C17.849000930786133,130.29299926757812 14.74899959564209,127.89299774169922 14.74899959564209,123.79299926757812 C14.74899959564209,123.79299926757812 14.74899959564209,122.39299774169922 14.74899959564209,122.39299774169922 C14.74899959564209,112.39299774169922 27.849000930786133,108.29299926757812 27.14900016784668,92.49299621582031 C27.14900016784668,92.49299621582031 23.749000549316406,28.593000411987305 23.749000549316406,28.593000411987305 C21.948999404907227,-2.7070000171661377 15.449000358581543,-15.406999588012695 -0.35100001096725464,-15.406999588012695 C-15.451000213623047,-15.406999588012695 -22.650999069213867,-2.006999969482422 -22.650999069213867,17.89299964904785 C-22.650999069213867,17.89299964904785 -22.650999069213867,92.79299926757812 -22.650999069213867,92.79299926757812 C-22.650999069213867,108.59300231933594 -7.151000022888184,112.39299774169922 -7.151000022888184,122.39299774169922 C-7.151000022888184,122.39299774169922 -7.151000022888184,123.79299926757812 -7.151000022888184,123.79299926757812 C-7.151000022888184,127.89299774169922 -10.550999641418457,130.29299926757812 -15.35099983215332,130.29299926757812 C-15.35099983215332,130.29299926757812 -89.95099639892578,130.29299926757812 -89.95099639892578,130.29299926757812 C-94.7509994506836,130.29299926757812 -97.85099792480469,127.89299774169922 -97.85099792480469,123.79299926757812 C-97.85099792480469,123.79299926757812 -97.85099792480469,122.39299774169922 -97.85099792480469,122.39299774169922 C-97.85099792480469,112.39299774169922 -82.7509994506836,108.59300231933594 -82.7509994506836,92.79299926757812 C-82.7509994506836,92.79299926757812 -82.7509994506836,-66.60700225830078 -82.7509994506836,-66.60700225830078 C-82.7509994506836,-82.80699920654297 -99.5510025024414,-84.50700378417969 -99.5510025024414,-94.10700225830078 C-99.5510025024414,-94.10700225830078 -99.5510025024414,-95.10700225830078 -99.5510025024414,-95.10700225830078 C-99.5510025024414,-99.20700073242188 -96.45099639892578,-102.60700225830078 -91.6510009765625,-104.70700073242188 C-91.6510009765625,-104.70700073242188 -37.35100173950195,-128.8070068359375 -37.35100173950195,-128.8070068359375 C-29.451000213623047,-132.3070068359375 -24.250999450683594,-129.5070037841797 -24.250999450683594,-121.60700225830078 C-24.250999450683594,-121.60700225830078 -24.250999450683594,-21.906999588012695 -24.250999450683594,-21.906999588012695 C-14.35099983215332,-32.30699920654297 0.14900000393390656,-38.106998443603516 17.64900016784668,-38.106998443603516 C47.54899978637695,-38.106998443603516 79.14900207519531,-21.30699920654297 82.9489974975586,30.593000411987305z"></path>
      </g>
    </g>
    <g style="display: block;" transform="matrix(1,0,0,1,811.9000244140625,594.0499877929688)"
      opacity="1">
      <g opacity="1" transform="matrix(1,0,0,1,0,0)">
        <path fill="rgb(32,30,29)" fill-opacity="1"
          d=" M-18.899999618530273,73.8499984741211 C-18.899999618530273,94.75 -4.400000095367432,115.05000305175781 10.699999809265137,115.05000305175781 C28.299999237060547,115.05000305175781 36.900001525878906,99.8499984741211 36.79999923706055,71.8499984741211 C36.79999923706055,34.650001525878906 26.799999237060547,-23.049999237060547 1.7000000476837158,-23.049999237060547 C-10.699999809265137,-23.049999237060547 -18.899999618530273,-12.050000190734863 -18.899999618530273,7.150000095367432 C-18.899999618530273,7.150000095367432 -18.899999618530273,73.8499984741211 -18.899999618530273,73.8499984741211z M-18.899999618530273,-29.75 C-9.899999618530273,-36.650001525878906 2.0999999046325684,-40.04999923706055 16.200000762939453,-40.04999923706055 C55.099998474121094,-40.04999923706055 97.4000015258789,-12.850000381469727 97.19999694824219,42.75 C97.19999694824219,97.05000305175781 58.70000076293945,131.75 16.100000381469727,131.75 C-2.0999999046325684,131.75 -15.199999809265137,126.25 -25.5,116.6500015258789 C-25.5,116.6500015258789 -25.5,119.75 -25.5,119.75 C-25.5,126.25 -28.200000762939453,128.64999389648438 -34.400001525878906,128.64999389648438 C-34.400001525878906,128.64999389648438 -86.30000305175781,128.35000610351562 -86.30000305175781,128.35000610351562 C-91.0999984741211,128.35000610351562 -94.19999694824219,125.94999694824219 -94.19999694824219,121.8499984741211 C-94.19999694824219,121.8499984741211 -94.19999694824219,120.44999694824219 -94.19999694824219,120.44999694824219 C-94.19999694824219,110.8499984741211 -80.4000015258789,106.75 -80.4000015258789,90.55000305175781 C-80.4000015258789,90.55000305175781 -80.4000015258789,-65.8499984741211 -80.4000015258789,-65.8499984741211 C-80.4000015258789,-81.94999694824219 -97.19999694824219,-84.75 -97.19999694824219,-94.3499984741211 C-97.19999694824219,-94.3499984741211 -97.19999694824219,-95.75 -97.19999694824219,-95.75 C-97.19999694824219,-99.8499984741211 -95.5,-101.94999694824219 -87.9000015258789,-105.3499984741211 C-87.9000015258789,-105.3499984741211 -35.099998474121094,-129.75 -35.099998474121094,-129.75 C-26.5,-133.85000610351562 -18.899999618530273,-131.85000610351562 -18.899999618530273,-121.8499984741211 C-18.899999618530273,-121.8499984741211 -18.899999618530273,-29.75 -18.899999618530273,-29.75z"></path>
      </g>
    </g>
    <g style="display: block;" transform="matrix(1,0,0,1,642.4500122070312,619.8499755859375)"
      opacity="1">
      <g opacity="1" transform="matrix(1,0,0,1,0,0)">
        <path fill="rgb(32,30,29)" fill-opacity="1"
          d=" M67.05000305175781,51.75 C67.05000305175781,78.25 47.45000076293945,106.05000305175781 9.949999809265137,106.05000305175781 C-24.149999618530273,106.05000305175781 -46.150001525878906,84.05000305175781 -46.04999923706055,42.45000076293945 C-46.04999923706055,42.45000076293945 -46.04999923706055,-39.04999923706055 -46.04999923706055,-39.04999923706055 C-46.04999923706055,-39.04999923706055 -59.150001525878906,-39.04999923706055 -59.150001525878906,-39.04999923706055 C-63.650001525878906,-39.04999923706055 -67.05000305175781,-42.45000076293945 -67.05000305175781,-46.95000076293945 C-67.05000305175781,-46.95000076293945 -67.05000305175781,-54.54999923706055 -67.05000305175781,-54.54999923706055 C-67.05000305175781,-59.349998474121094 -63.95000076293945,-62.45000076293945 -59.150001525878906,-62.45000076293945 C-59.150001525878906,-62.45000076293945 -52.650001525878906,-62.45000076293945 -52.650001525878906,-62.45000076293945 C-31.75,-62.45000076293945 -15.25,-76.1500015258789 -10.75,-97.1500015258789 C-9.649999618530273,-102.6500015258789 -5.949999809265137,-106.05000305175781 -1.4500000476837158,-106.05000305175781 C-1.4500000476837158,-106.05000305175781 6.449999809265137,-106.05000305175781 6.449999809265137,-106.05000305175781 C11.949999809265137,-106.05000305175781 15.75,-102.6500015258789 15.75,-97.1500015258789 C15.75,-97.1500015258789 15.75,-62.45000076293945 15.75,-62.45000076293945 C15.75,-62.45000076293945 51.150001525878906,-62.45000076293945 51.150001525878906,-62.45000076293945 C55.650001525878906,-62.45000076293945 59.04999923706055,-59.04999923706055 59.04999923706055,-54.54999923706055 C59.04999923706055,-54.54999923706055 59.04999923706055,-46.95000076293945 59.04999923706055,-46.95000076293945 C59.04999923706055,-42.45000076293945 55.650001525878906,-39.04999923706055 51.150001525878906,-39.04999923706055 C51.150001525878906,-39.04999923706055 15.75,-39.04999923706055 15.75,-39.04999923706055 C15.75,-39.04999923706055 15.75,43.45000076293945 15.75,43.45000076293945 C15.75,55.150001525878906 22.649999618530273,62.04999923706055 31.25,62.04999923706055 C44.650001525878906,62.04999923706055 50.150001525878906,55.54999923706055 53.95000076293945,49.349998474121094 C58.849998474121094,43.150001525878906 67.05000305175781,45.25 67.05000305175781,51.75z"></path>
      </g>
    </g>
    <g style="display: block;" transform="matrix(1,0,0,1,423.6820068359375,378.3169860839844)"
      opacity="1">
      <g opacity="1" transform="matrix(1,0,0,1,0,0)">
        <path fill="rgb(255,125,61)" fill-opacity="1"
          d=" M109.21800231933594,110.48300170898438 C109.21800231933594,110.48300170898438 159.01800537109375,131.38299560546875 159.01800537109375,131.38299560546875 C161.91799926757812,132.88299560546875 166.21800231933594,131.98300170898438 163.3179931640625,126.08300018310547 C159.6179962158203,118.38300323486328 152.3179931640625,104.18299865722656 147.51800537109375,96.28299713134766 C147.51800537109375,96.28299713134766 132.3179931640625,59.483001708984375 132.3179931640625,59.483001708984375 C131.51800537109375,25.482999801635742 130.1179962158203,-43.117000579833984 130.1179962158203,-46.617000579833984 C130.1179962158203,-49.71699905395508 128.71800231933594,-112.41699981689453 128.3179931640625,-128.41700744628906 C128.3179931640625,-130.51699829101562 126.61799621582031,-132.11700439453125 124.61799621582031,-132.01699829101562 C100.11799621582031,-131.31700134277344 -39.582000732421875,-127.21700286865234 -59.582000732421875,-123.91699981689453 C-66.38200378417969,-122.81700134277344 -120.18199920654297,-112.51699829101562 -148.6820068359375,-107.11699676513672 C-150.28199768066406,-106.81700134277344 -151.48199462890625,-105.51699829101562 -151.6820068359375,-104.01699829101562 C-151.6820068359375,-104.01699829101562 -156.3820037841797,-73.41699981689453 -156.3820037841797,-73.41699981689453 C-156.3820037841797,-73.41699981689453 -164.28199768066406,-15.717000007629395 -164.28199768066406,-15.717000007629395 C-161.3820037841797,14.083000183105469 -155.48199462890625,76.88300323486328 -154.8820037841797,89.58300018310547 C-154.48199462890625,99.58300018310547 -150.28199768066406,116.68299865722656 -148.48199462890625,123.48300170898438 C-147.98199462890625,125.18299865722656 -146.3820037841797,126.28299713134766 -144.6820068359375,126.18299865722656 C-144.6820068359375,126.18299865722656 109.21800231933594,110.48300170898438 109.21800231933594,110.48300170898438z"></path>
      </g>
    </g>
    <g style="display: block;" transform="matrix(1,0,0,1,405.4700012207031,414.97998046875)"
      opacity="1">
      <g opacity="1" transform="matrix(1,0,0,1,0,0)">
        <path fill="rgb(32,30,29)" fill-opacity="1"
          d=" M78.13999938964844,-39.150001525878906 C76.20099639892578,-32.8489990234375 72.6719970703125,-23.868000030517578 66.32499694824219,-11.539999961853027 C61.16999816894531,-1.527999997138977 40.17100143432617,16.902000427246094 22.895999908447266,18.849000930786133 C0.6039999723434448,21.361000061035156 -6.5879998207092285,19.483999252319336 -19.641000747680664,17.201000213623047 C-34.143001556396484,14.664999961853027 -49.768001556396484,8.567000389099121 -63.21799850463867,-6.6620001792907715 C-71.85700225830078,-16.444000244140625 -76.57499694824219,-26.243000030517578 -79.37000274658203,-31.97100067138672 C-83.65499877929688,-40.755001068115234 -89.62799835205078,-37.209999084472656 -89.06600189208984,-25.22100067138672 C-88.49199676513672,-12.973999977111816 -83.89099884033203,-1.4759999513626099 -75.77100372314453,8.996999740600586 C-59.922000885009766,29.43899917602539 -41.534000396728516,41.625999450683594 -24.586000442504883,43.14899826049805 C-7.638000011444092,44.672000885009766 -9.321999549865723,45.08000183105469 6.578000068664551,44.68000030517578 C22.47800064086914,44.279998779296875 40.529998779296875,40.41899871826172 50.93000030517578,33.51900100708008 C61.43000030517578,26.618999481201172 69.7300033569336,17.618999481201172 76.52999877929688,6.11899995803833 C83.43000030517578,-5.38100004196167 89.99199676513672,-18.11199951171875 89.40699768066406,-33.5369987487793 C88.95700073242188,-45.402000427246094 81.23799896240234,-49.21500015258789 78.13999938964844,-39.150001525878906z"></path>
      </g>
    </g>
    <g style="display: block;" transform="matrix(1,0,0,1,365.8999938964844,344.79998779296875)"
      opacity="1">
      <g opacity="1" transform="matrix(1,0,0,1,0,0)">
        <path fill="rgb(32,30,29)" fill-opacity="1"
          d=" M0,-31.899999618530273 C-9.774999618530273,-31.899999618530273 -17.700000762939453,-17.618000030517578 -17.700000762939453,0 C-17.700000762939453,17.618000030517578 -9.774999618530273,31.899999618530273 0,31.899999618530273 C9.774999618530273,31.899999618530273 17.700000762939453,17.618000030517578 17.700000762939453,0 C17.700000762939453,-17.618000030517578 9.774999618530273,-31.899999618530273 0,-31.899999618530273z"></path>
      </g>
    </g>
    <g style="display: block;" transform="matrix(1,0,0,1,445.9380187988281,338.83099365234375)"
      opacity="1">
      <g opacity="1"
        transform="matrix(0.014136696234345436,-0.9999000430107117,0.9999000430107117,0.014136696234345436,0,0)">
        <path fill="rgb(32,30,29)" fill-opacity="1"
          d=" M0,17.700000762939453 C17.618000030517578,17.700000762939453 31.899999618530273,9.774999618530273 31.899999618530273,0 C31.899999618530273,-9.774999618530273 17.618000030517578,-17.700000762939453 0,-17.700000762939453 C-17.618000030517578,-17.700000762939453 -31.899999618530273,-9.774999618530273 -31.899999618530273,0 C-31.899999618530273,9.774999618530273 -17.618000030517578,17.700000762939453 0,17.700000762939453z"></path>
      </g>
    </g>
  </g>
</svg>
