<svg class="hidden md:block w-[100px]" viewBox="0 0 104 58" fill="none"
  xmlns="http://www.w3.org/2000/svg">
  <path
    d="M39.0474 31.909L33.0394 29.3839L2.40278 31.2772C2.19248 31.2902 2.00236 31.1551 1.94929 30.9512C1.73638 30.1333 1.22615 28.0679 1.17119 26.8588C1.10153 25.3263 0.387414 17.7452 0.0390625 14.1462L0.997081 7.18045L1.55889 3.48645C1.58727 3.29986 1.72976 3.15149 1.91514 3.11605C5.35067 2.45913 11.8537 1.22053 12.6646 1.08539C15.0787 0.683042 31.9432 0.186251 34.8927 0.101932C35.1393 0.0948821 35.337 0.288193 35.3428 0.534845C35.388 2.46629 35.5646 10.0376 35.5646 10.4021C35.5646 10.8201 35.7388 19.1094 35.8259 23.2018L37.6544 27.6424C38.2349 28.6002 39.11 30.312 39.5653 31.2398C39.9245 31.9717 39.3958 32.0831 39.0474 31.909Z"
    fill="#FF7E3E"></path>
  <path
    d="M23.8117 21.025C22.8017 21.9306 21.7073 22.4182 21.2864 22.5488C21.0107 22.6068 20.0154 22.749 18.2391 22.8535C16.0187 22.9841 14.3644 22.3746 12.6229 21.678C10.8815 20.9814 9.18356 18.4998 8.70466 17.7162C8.22577 16.9325 7.96443 15.8877 7.442 15.9747C6.91956 16.0618 6.70209 16.323 6.91977 18.0645C7.13745 19.8059 8.22575 21.2861 9.57537 22.7228C10.925 24.1595 11.7954 24.682 13.0145 25.2044C14.2335 25.7268 16.6282 25.901 18.5438 25.8574C20.4594 25.8139 22.5491 25.335 23.8116 24.5078C25.0742 23.6806 26.0755 22.5922 26.9027 21.1991C27.7299 19.8059 28.3829 18.2386 28.47 16.9325C28.5571 15.6264 28.2959 15.0605 27.817 15.0605C27.3381 15.0605 27.0769 15.3652 26.9462 16.1489C26.8156 16.9325 26.2932 17.7162 25.8578 18.7175C25.4225 19.7189 25.0742 19.893 23.8117 21.025Z"
    fill="#211E1D"></path>
  <path
    d="M15.0217 12.0069C15.0217 14.1315 14.0637 15.8539 12.8819 15.8539C11.7002 15.8539 10.7422 14.1315 10.7422 12.0069C10.7422 9.88223 11.7002 8.15987 12.8819 8.15987C14.0637 8.15987 15.0217 9.88223 15.0217 12.0069Z"
    fill="#211E1D"></path>
  <path
    d="M24.6834 11.3162C24.6478 13.4405 23.6612 15.1466 22.4796 15.1269C21.298 15.1071 20.369 13.369 20.4045 11.2446C20.44 9.12029 21.4266 7.41417 22.6082 7.43392C23.7898 7.45366 24.7189 9.1918 24.6834 11.3162Z"
    fill="#211E1D"></path>
  <path
    d="M47.4571 58C51.9791 58 54.3438 54.6396 54.3438 51.4451C54.3438 50.6569 53.3482 50.4079 52.7674 51.1547C52.311 51.9015 51.6472 52.6897 50.0292 52.6897C48.9921 52.6897 48.1623 51.86 48.1623 50.4494V40.4926H52.4355C52.9748 40.4926 53.3896 40.0778 53.3896 39.5385V38.6257C53.3896 38.0864 52.9748 37.6716 52.4355 37.6716H48.1623V33.4814C48.1623 32.8176 47.706 32.4028 47.0422 32.4028H46.088C45.5487 32.4028 45.0923 32.8176 44.9679 33.4814C44.4285 36.0121 42.4372 37.6716 39.9065 37.6716H39.1183C38.5374 37.6716 38.1641 38.0449 38.1641 38.6257V39.5385C38.1641 40.0778 38.5789 40.4926 39.1183 40.4926H40.6947V50.325C40.6947 55.3449 43.3499 58 47.4571 58Z"
    fill="white"></path>
  <path
    d="M68.67 37.2567C66.9691 37.2567 65.517 37.6716 64.4384 38.5013V27.3829C64.4384 26.1798 63.5257 25.9308 62.4885 26.4287L56.0996 29.3742C55.1869 29.7891 54.9794 30.038 54.9794 30.5359V30.7018C54.9794 31.8634 57.0123 32.1953 57.0123 34.1452V53.0216C57.0123 54.9715 55.3528 55.4693 55.3528 56.6309V56.7969C55.3528 57.2947 55.7262 57.5851 56.307 57.5851L62.5715 57.6266C63.3182 57.6266 63.6501 57.3362 63.6501 56.548V56.1746C64.8947 57.3362 66.4712 58 68.67 58C73.8144 58 78.4608 53.8098 78.4608 47.255C78.4608 40.5341 73.358 37.2567 68.67 37.2567ZM68.0062 55.9672C66.1808 55.9672 64.4384 53.5194 64.4384 50.9888V42.9404C64.4384 40.6171 65.4341 39.2895 66.9276 39.2895C69.9561 39.2895 71.1592 46.2593 71.1592 50.7398C71.1592 54.1417 70.122 55.9672 68.0062 55.9672Z"
    fill="white"></path>
  <path
    d="M102.467 53.0216L101.928 45.554C101.472 39.2895 97.6549 37.2567 94.0456 37.2567C91.9297 37.2567 90.1873 37.962 88.9842 39.2066V27.1754C88.9842 26.2213 88.3619 25.8894 87.4077 26.3042L80.8528 29.2083C80.272 29.4572 79.8986 29.8721 79.8986 30.3699V30.4944C79.8986 31.656 81.9315 31.8634 81.9315 33.8133V53.0631C81.9315 54.9715 80.1061 55.4278 80.1061 56.6309V56.7969C80.1061 57.2947 80.4794 57.5851 81.0602 57.5851H90.0628C90.6437 57.5851 91.0585 57.2947 91.0585 56.7969V56.6309C91.0585 55.4278 89.1916 54.9715 89.1916 53.0631V44.019C89.1916 41.6128 90.0628 39.9948 91.8883 39.9948C93.7966 39.9948 94.5849 41.5298 94.7923 45.3051L95.2072 53.0216C95.2901 54.93 93.7137 55.4278 93.7137 56.6309V56.7969C93.7137 57.2947 94.087 57.5851 94.7093 57.5851H102.965C103.587 57.5851 103.961 57.2947 103.961 56.7969V56.6309C103.961 55.4278 102.633 54.93 102.467 53.0216Z"
    fill="white"></path>
</svg>
